<svg width="20" height="22" viewBox="0 0 20 22" fill="none" xmlns="http://www.w3.org/2000/svg">
<path d="M9.99999 21.7599C8.90999 21.7599 7.82999 21.4399 6.97999 20.8099L2.67999 17.5999C1.53999 16.7499 0.649994 14.9699 0.649994 13.5599V6.11994C0.649994 4.57994 1.77999 2.93994 3.22999 2.39994L8.21999 0.529941C9.20999 0.159941 10.77 0.159941 11.76 0.529941L16.75 2.39994C18.2 2.93994 19.33 4.57994 19.33 6.11994V13.5499C19.33 14.9699 18.44 16.7399 17.3 17.5899L13 20.7999C12.17 21.4399 11.09 21.7599 9.99999 21.7599ZM8.74999 1.93994L3.75999 3.80994C2.90999 4.12994 2.15999 5.20994 2.15999 6.12994V13.5599C2.15999 14.5099 2.82999 15.8399 3.57999 16.3999L7.87999 19.6099C9.02999 20.4699 10.97 20.4699 12.13 19.6099L16.43 16.3999C17.19 15.8299 17.85 14.5099 17.85 13.5599V6.11994C17.85 5.20994 17.1 4.12994 16.25 3.79994L11.26 1.92994C10.58 1.68994 9.41999 1.68994 8.74999 1.93994Z" fill="#292D32"/>
</svg>
