<svg width="151" height="25" viewBox="0 0 151 25" fill="none" xmlns="http://www.w3.org/2000/svg">
<path d="M8 6.25C7.59 6.25 7.25 5.91 7.25 5.5V2.5C7.25 2.09 7.59 1.75 8 1.75C8.41 1.75 8.75 2.09 8.75 2.5V5.5C8.75 5.91 8.41 6.25 8 6.25Z" fill="white"/>
<path d="M16 6.25C15.59 6.25 15.25 5.91 15.25 5.5V2.5C15.25 2.09 15.59 1.75 16 1.75C16.41 1.75 16.75 2.09 16.75 2.5V5.5C16.75 5.91 16.41 6.25 16 6.25Z" fill="white"/>
<path d="M8.5 15.0003C8.37 15.0003 8.24 14.9703 8.12 14.9203C7.99 14.8703 7.89 14.8003 7.79 14.7103C7.61 14.5203 7.5 14.2703 7.5 14.0003C7.5 13.8703 7.53 13.7403 7.58 13.6203C7.63 13.5003 7.7 13.3903 7.79 13.2903C7.89 13.2003 7.99 13.1303 8.12 13.0803C8.48 12.9303 8.93 13.0103 9.21 13.2903C9.39 13.4803 9.5 13.7403 9.5 14.0003C9.5 14.0603 9.49 14.1303 9.48 14.2003C9.47 14.2603 9.45 14.3203 9.42 14.3803C9.4 14.4403 9.37 14.5003 9.33 14.5603C9.3 14.6103 9.25 14.6603 9.21 14.7103C9.02 14.8903 8.76 15.0003 8.5 15.0003Z" fill="white"/>
<path d="M12 15.0008C11.87 15.0008 11.74 14.9709 11.62 14.9209C11.49 14.8709 11.39 14.8008 11.29 14.7108C11.11 14.5208 11 14.2708 11 14.0008C11 13.8708 11.03 13.7408 11.08 13.6208C11.13 13.5008 11.2 13.3909 11.29 13.2909C11.39 13.2009 11.49 13.1308 11.62 13.0808C11.98 12.9208 12.43 13.0109 12.71 13.2909C12.89 13.4809 13 13.7408 13 14.0008C13 14.0608 12.99 14.1309 12.98 14.2009C12.97 14.2609 12.95 14.3209 12.92 14.3809C12.9 14.4409 12.87 14.5008 12.83 14.5608C12.8 14.6108 12.75 14.6608 12.71 14.7108C12.52 14.8908 12.26 15.0008 12 15.0008Z" fill="white"/>
<path d="M15.5 15.0008C15.37 15.0008 15.24 14.9709 15.12 14.9209C14.99 14.8709 14.89 14.8008 14.79 14.7108C14.75 14.6608 14.71 14.6108 14.67 14.5608C14.63 14.5008 14.6 14.4409 14.58 14.3809C14.55 14.3209 14.53 14.2609 14.52 14.2009C14.51 14.1309 14.5 14.0608 14.5 14.0008C14.5 13.7408 14.61 13.4809 14.79 13.2909C14.89 13.2009 14.99 13.1308 15.12 13.0808C15.49 12.9208 15.93 13.0109 16.21 13.2909C16.39 13.4809 16.5 13.7408 16.5 14.0008C16.5 14.0608 16.49 14.1309 16.48 14.2009C16.47 14.2609 16.45 14.3209 16.42 14.3809C16.4 14.4409 16.37 14.5008 16.33 14.5608C16.3 14.6108 16.25 14.6608 16.21 14.7108C16.02 14.8908 15.76 15.0008 15.5 15.0008Z" fill="white"/>
<path d="M8.5 18.4992C8.37 18.4992 8.24 18.4692 8.12 18.4192C8 18.3692 7.89 18.2992 7.79 18.2092C7.61 18.0192 7.5 17.7592 7.5 17.4992C7.5 17.3692 7.53 17.2392 7.58 17.1192C7.63 16.9892 7.7 16.8792 7.79 16.7892C8.16 16.4192 8.84 16.4192 9.21 16.7892C9.39 16.9792 9.5 17.2392 9.5 17.4992C9.5 17.7592 9.39 18.0192 9.21 18.2092C9.02 18.3892 8.76 18.4992 8.5 18.4992Z" fill="white"/>
<path d="M12 18.4992C11.74 18.4992 11.48 18.3892 11.29 18.2092C11.11 18.0192 11 17.7592 11 17.4992C11 17.3692 11.03 17.2392 11.08 17.1192C11.13 16.9892 11.2 16.8792 11.29 16.7892C11.66 16.4192 12.34 16.4192 12.71 16.7892C12.8 16.8792 12.87 16.9892 12.92 17.1192C12.97 17.2392 13 17.3692 13 17.4992C13 17.7592 12.89 18.0192 12.71 18.2092C12.52 18.3892 12.26 18.4992 12 18.4992Z" fill="white"/>
<path d="M15.5 18.5009C15.24 18.5009 14.98 18.3909 14.79 18.2109C14.7 18.1209 14.63 18.0109 14.58 17.8809C14.53 17.7609 14.5 17.6309 14.5 17.5009C14.5 17.3709 14.53 17.2409 14.58 17.1209C14.63 16.9909 14.7 16.8809 14.79 16.7909C15.02 16.5609 15.37 16.4509 15.69 16.5209C15.76 16.5309 15.82 16.5509 15.88 16.5809C15.94 16.6009 16 16.6309 16.06 16.6709C16.11 16.7009 16.16 16.7509 16.21 16.7909C16.39 16.9809 16.5 17.2409 16.5 17.5009C16.5 17.7609 16.39 18.0209 16.21 18.2109C16.02 18.3909 15.76 18.5009 15.5 18.5009Z" fill="white"/>
<path d="M20.5 10.3398H3.5C3.09 10.3398 2.75 9.99984 2.75 9.58984C2.75 9.17984 3.09 8.83984 3.5 8.83984H20.5C20.91 8.83984 21.25 9.17984 21.25 9.58984C21.25 9.99984 20.91 10.3398 20.5 10.3398Z" fill="white"/>
<path d="M16 23.25H8C4.35 23.25 2.25 21.15 2.25 17.5V9C2.25 5.35 4.35 3.25 8 3.25H16C19.65 3.25 21.75 5.35 21.75 9V17.5C21.75 21.15 19.65 23.25 16 23.25ZM8 4.75C5.14 4.75 3.75 6.14 3.75 9V17.5C3.75 20.36 5.14 21.75 8 21.75H16C18.86 21.75 20.25 20.36 20.25 17.5V9C20.25 6.14 18.86 4.75 16 4.75H8Z" fill="white"/>
<path d="M57.3828 18.5L56.3516 15.4531H52.0547L51.0234 18.5H49.2031L53.2734 7.22656H55.1641L59.2344 18.5H57.3828ZM54.1797 9.10156L52.5 14.0469H55.9062L54.2266 9.10156H54.1797ZM64.9287 10.1484C65.9756 10.1484 66.8141 10.5312 67.4443 11.2969C68.0745 12.0625 68.3896 13.0938 68.3896 14.3906C68.3896 15.6875 68.0771 16.7214 67.4521 17.4922C66.8271 18.2578 65.9964 18.6406 64.9599 18.6406C64.3766 18.6406 63.8584 18.5078 63.4052 18.2422C62.9573 17.9766 62.6136 17.612 62.374 17.1484H62.3349V21.2188H60.6474V10.2812H62.2802V11.6953H62.3115C62.5563 11.2161 62.9079 10.8385 63.3662 10.5625C63.8245 10.2865 64.3454 10.1484 64.9287 10.1484ZM64.4834 17.2109C65.15 17.2109 65.6787 16.9583 66.0693 16.4531C66.4599 15.9427 66.6552 15.2552 66.6552 14.3906C66.6552 13.5312 66.4599 12.8464 66.0693 12.3359C65.6787 11.8255 65.15 11.5703 64.4834 11.5703C63.8375 11.5703 63.3167 11.8281 62.9209 12.3438C62.525 12.8594 62.3271 13.5417 62.3271 14.3906C62.3271 15.2448 62.5224 15.9297 62.9131 16.4453C63.3089 16.9557 63.8323 17.2109 64.4834 17.2109ZM74.3496 10.1484C75.3964 10.1484 76.235 10.5312 76.8652 11.2969C77.4954 12.0625 77.8105 13.0938 77.8105 14.3906C77.8105 15.6875 77.498 16.7214 76.873 17.4922C76.248 18.2578 75.4173 18.6406 74.3808 18.6406C73.7975 18.6406 73.2792 18.5078 72.8261 18.2422C72.3782 17.9766 72.0345 17.612 71.7949 17.1484H71.7558V21.2188H70.0683V10.2812H71.7011V11.6953H71.7324C71.9772 11.2161 72.3287 10.8385 72.7871 10.5625C73.2454 10.2865 73.7662 10.1484 74.3496 10.1484ZM73.9042 17.2109C74.5709 17.2109 75.0996 16.9583 75.4902 16.4531C75.8808 15.9427 76.0761 15.2552 76.0761 14.3906C76.0761 13.5312 75.8808 12.8464 75.4902 12.3359C75.0996 11.8255 74.5709 11.5703 73.9042 11.5703C73.2584 11.5703 72.7376 11.8281 72.3417 12.3438C71.9459 12.8594 71.748 13.5417 71.748 14.3906C71.748 15.2448 71.9433 15.9297 72.3339 16.4453C72.7298 16.9557 73.2532 17.2109 73.9042 17.2109ZM85.8564 17.5156C85.148 18.276 84.2027 18.6562 83.0204 18.6562C81.8381 18.6562 80.8928 18.276 80.1845 17.5156C79.4762 16.75 79.122 15.7083 79.122 14.3906C79.122 13.0781 79.4762 12.0417 80.1845 11.2812C80.8928 10.5156 81.8381 10.1328 83.0204 10.1328C84.2027 10.1328 85.148 10.5156 85.8564 11.2812C86.5647 12.0417 86.9189 13.0781 86.9189 14.3906C86.9189 15.7083 86.5647 16.75 85.8564 17.5156ZM83.0204 17.2656C83.6923 17.2656 84.2236 17.013 84.6142 16.5078C85.0048 16.0026 85.2001 15.2969 85.2001 14.3906C85.2001 13.4896 85.0022 12.7865 84.6064 12.2812C84.2157 11.776 83.6871 11.5234 83.0204 11.5234C82.3538 11.5234 81.8225 11.776 81.4267 12.2812C81.0361 12.7865 80.8407 13.4896 80.8407 14.3906C80.8407 15.2969 81.0361 16.0026 81.4267 16.5078C81.8225 17.013 82.3538 17.2656 83.0204 17.2656ZM88.6522 18.5V10.2812H90.3397V18.5H88.6522ZM90.1913 8.79688C89.9986 8.98438 89.7668 9.07812 89.496 9.07812C89.2252 9.07812 88.9934 8.98438 88.8007 8.79688C88.6132 8.60938 88.5194 8.38281 88.5194 8.11719C88.5194 7.84635 88.6132 7.61719 88.8007 7.42969C88.9934 7.24219 89.2252 7.14844 89.496 7.14844C89.772 7.14844 90.0038 7.24219 90.1913 7.42969C90.384 7.61719 90.4804 7.84635 90.4804 8.11719C90.4804 8.38281 90.384 8.60938 90.1913 8.79688ZM92.4403 18.5V10.2812H94.0497V11.6562H94.0887C94.3179 11.1771 94.6512 10.8047 95.0887 10.5391C95.5262 10.2734 96.0549 10.1406 96.6747 10.1406C97.5757 10.1406 98.2762 10.4115 98.7762 10.9531C99.2762 11.4896 99.5262 12.2318 99.5262 13.1797V18.5H97.8309V13.5078C97.8309 12.8828 97.6825 12.4089 97.3856 12.0859C97.094 11.7578 96.6591 11.5938 96.0809 11.5938C95.4872 11.5938 95.0132 11.7865 94.6591 12.1719C94.3049 12.5573 94.1278 13.0703 94.1278 13.7109V18.5H92.4403ZM102.025 8.33594H103.721V10.2812H105.283V11.6172H103.721V16.1484C103.721 16.5026 103.801 16.763 103.963 16.9297C104.124 17.0964 104.377 17.1797 104.721 17.1797C104.971 17.1797 105.155 17.1667 105.275 17.1406V18.4766C105.067 18.5286 104.754 18.5547 104.338 18.5547C103.51 18.5547 102.916 18.3854 102.556 18.0469C102.202 17.7031 102.025 17.1328 102.025 16.3359V11.6172H100.83V10.2812H102.025V8.33594ZM107.048 18.5V10.2812H108.657V11.6641H108.696C108.884 11.2005 109.183 10.8307 109.595 10.5547C110.006 10.2786 110.485 10.1406 111.032 10.1406C111.6 10.1406 112.082 10.2812 112.477 10.5625C112.878 10.8438 113.162 11.2396 113.329 11.75H113.368C113.582 11.25 113.915 10.8568 114.368 10.5703C114.826 10.2839 115.347 10.1406 115.931 10.1406C116.743 10.1406 117.394 10.388 117.884 10.8828C118.373 11.3776 118.618 12.0339 118.618 12.8516V18.5H116.923V13.2578C116.923 12.7266 116.785 12.3151 116.509 12.0234C116.238 11.7318 115.852 11.5859 115.352 11.5859C114.852 11.5859 114.444 11.7526 114.126 12.0859C113.813 12.4193 113.657 12.8464 113.657 13.3672V18.5H112.001V13.1328C112.001 12.6589 111.86 12.2839 111.579 12.0078C111.298 11.7266 110.92 11.5859 110.446 11.5859C109.946 11.5859 109.535 11.7604 109.212 12.1094C108.894 12.4531 108.735 12.8906 108.735 13.4219V18.5H107.048ZM125.492 12.0859C125.122 11.6901 124.646 11.4922 124.062 11.4922C123.479 11.4922 122.995 11.6927 122.609 12.0938C122.224 12.4896 122.01 13.0026 121.969 13.6328H126.078C126.057 12.9974 125.862 12.4818 125.492 12.0859ZM126.07 16.0859H127.672C127.552 16.8411 127.166 17.4583 126.515 17.9375C125.864 18.4167 125.07 18.6562 124.133 18.6562C122.929 18.6562 121.982 18.2786 121.289 17.5234C120.601 16.763 120.258 15.7318 120.258 14.4297C120.258 13.138 120.601 12.099 121.289 11.3125C121.982 10.526 122.906 10.1328 124.062 10.1328C125.198 10.1328 126.099 10.5052 126.765 11.25C127.432 11.9896 127.765 12.9844 127.765 14.2344V14.8125H121.961V14.9141C121.961 15.6328 122.161 16.2083 122.562 16.6406C122.963 17.0729 123.5 17.2891 124.172 17.2891C124.646 17.2891 125.052 17.1797 125.39 16.9609C125.729 16.7422 125.956 16.4505 126.07 16.0859ZM129.452 18.5V10.2812H131.061V11.6562H131.1C131.33 11.1771 131.663 10.8047 132.1 10.5391C132.538 10.2734 133.067 10.1406 133.686 10.1406C134.587 10.1406 135.288 10.4115 135.788 10.9531C136.288 11.4896 136.538 12.2318 136.538 13.1797V18.5H134.843V13.5078C134.843 12.8828 134.694 12.4089 134.397 12.0859C134.106 11.7578 133.671 11.5938 133.093 11.5938C132.499 11.5938 132.025 11.7865 131.671 12.1719C131.317 12.5573 131.139 13.0703 131.139 13.7109V18.5H129.452ZM139.037 8.33594H140.732V10.2812H142.295V11.6172H140.732V16.1484C140.732 16.5026 140.813 16.763 140.974 16.9297C141.136 17.0964 141.388 17.1797 141.732 17.1797C141.982 17.1797 142.167 17.1667 142.287 17.1406V18.4766C142.079 18.5286 141.766 18.5547 141.349 18.5547C140.521 18.5547 139.927 18.3854 139.568 18.0469C139.214 17.7031 139.037 17.1328 139.037 16.3359V11.6172H137.842V10.2812H139.037V8.33594ZM143.911 12.6094C143.911 11.875 144.208 11.2786 144.801 10.8203C145.395 10.362 146.171 10.1328 147.13 10.1328C148.041 10.1328 148.788 10.3646 149.372 10.8281C149.96 11.2865 150.268 11.8828 150.294 12.6172H148.708C148.666 12.2422 148.502 11.9479 148.216 11.7344C147.929 11.5208 147.551 11.4141 147.083 11.4141C146.624 11.4141 146.255 11.5156 145.973 11.7188C145.697 11.9219 145.559 12.1849 145.559 12.5078C145.559 13.0078 145.979 13.362 146.817 13.5703L148.2 13.8906C149.028 14.0885 149.614 14.3594 149.958 14.7031C150.307 15.0417 150.481 15.5156 150.481 16.125C150.481 16.875 150.163 17.4844 149.528 17.9531C148.898 18.4219 148.078 18.6562 147.067 18.6562C146.104 18.6562 145.317 18.4271 144.708 17.9688C144.104 17.5104 143.768 16.901 143.7 16.1406H145.372C145.44 16.5365 145.624 16.8411 145.926 17.0547C146.229 17.263 146.635 17.3672 147.145 17.3672C147.65 17.3672 148.049 17.2708 148.341 17.0781C148.637 16.8802 148.786 16.6146 148.786 16.2812C148.786 16.0156 148.697 15.8047 148.52 15.6484C148.343 15.4922 148.041 15.3594 147.614 15.25L146.145 14.8906C144.656 14.5312 143.911 13.7708 143.911 12.6094Z" fill="white"/>
</svg>
