<svg width="72" height="72" viewBox="0 0 72 72" fill="none" xmlns="http://www.w3.org/2000/svg">
<circle cx="36" cy="36" r="36" fill="#FEF3C7"/>
<circle cx="36" cy="36" r="28" fill="#FDE68A"/>
<path fill-rule="evenodd" clip-rule="evenodd" d="M36 56C47.0457 56 56 47.0457 56 36C56 24.9543 47.0457 16 36 16C24.9543 16 16 24.9543 16 36C16 47.0457 24.9543 56 36 56ZM41.3033 33.3033C41.889 32.7175 41.889 31.7678 41.3033 31.182C40.7175 30.5962 39.7677 30.5962 39.1819 31.182L36 34.364L32.818 31.182C32.2322 30.5962 31.2825 30.5962 30.6967 31.182C30.1109 31.7678 30.1109 32.7175 30.6967 33.3033L33.8786 36.4853L30.6967 39.6673C30.1109 40.253 30.1109 41.2028 30.6967 41.7886C31.2825 42.3744 32.2322 42.3744 32.818 41.7886L36 38.6066L39.1819 41.7886C39.7677 42.3744 40.7175 42.3744 41.3033 41.7886C41.8891 41.2028 41.8891 40.253 41.3033 39.6673L38.1213 36.4853L41.3033 33.3033Z" fill="#F59E0B"/>
</svg>
