<svg width="19" height="21" viewBox="0 0 19 21" fill="none" xmlns="http://www.w3.org/2000/svg">
<path fill-rule="evenodd" clip-rule="evenodd" d="M2.56107 1.45491C2.66622 1.37852 2.77495 1.30825 2.88793 1.24359C2.92423 1.32442 2.97557 1.40015 3.04195 1.46653C4.3325 2.75703 5.34549 3.76842 6.23846 4.48311C7.14248 5.20666 7.98909 5.68158 8.96451 5.83608C9.56047 5.93047 10.1676 5.93047 10.7635 5.83608C11.7117 5.6859 12.538 5.23301 13.4137 4.54333C14.2783 3.86245 15.2489 2.90277 16.4707 1.68187C16.5099 1.6427 16.5438 1.60027 16.5725 1.55545C16.942 1.84326 17.2695 2.18172 17.5451 2.56107C18.5 3.8754 18.5 5.75027 18.5 9.5V11.5C18.5 15.2497 18.5 17.1246 17.5451 18.4389C17.2367 18.8634 16.8634 19.2367 16.4389 19.5451C15.1246 20.5 13.2497 20.5 9.5 20.5C5.75027 20.5 3.8754 20.5 2.56107 19.5451C2.1366 19.2367 1.76331 18.8634 1.45491 18.4389C0.5 17.1246 0.5 15.2497 0.5 11.5V9.5C0.5 5.75027 0.5 3.8754 1.45491 2.56107C1.76331 2.1366 2.1366 1.76331 2.56107 1.45491ZM5.5 7.75C5.08579 7.75 4.75 8.08579 4.75 8.5C4.75 8.91421 5.08579 9.25 5.5 9.25H13.5C13.9142 9.25 14.25 8.91421 14.25 8.5C14.25 8.08579 13.9142 7.75 13.5 7.75H5.5ZM7.5 11.75C7.08579 11.75 6.75 12.0858 6.75 12.5C6.75 12.9142 7.08579 13.25 7.5 13.25H11.5C11.9142 13.25 12.25 12.9142 12.25 12.5C12.25 12.0858 11.9142 11.75 11.5 11.75H7.5ZM5.5 15.75C5.08579 15.75 4.75 16.0858 4.75 16.5C4.75 16.9142 5.08579 17.25 5.5 17.25H13.5C13.9142 17.25 14.25 16.9142 14.25 16.5C14.25 16.0858 13.9142 15.75 13.5 15.75H5.5Z" fill="#006D5B"/>
<path d="M9.5 0.5C12.1999 0.5 13.9278 0.5 15.1744 0.856472C14.054 1.97389 13.216 2.78975 12.4857 3.3649C11.7161 3.97095 11.1262 4.25993 10.5289 4.35454C10.0884 4.42431 9.63965 4.42431 9.19917 4.35454C8.58463 4.25721 7.97818 3.95425 7.17576 3.31202C6.42863 2.71404 5.56901 1.87043 4.4166 0.719675C5.60873 0.5 7.20241 0.5 9.5 0.5Z" fill="#006D5B"/>
</svg>
