<svg width="25" height="24" viewBox="0 0 25 24" fill="none" xmlns="http://www.w3.org/2000/svg">
<path d="M16.9679 3.56V2C16.9679 1.59 16.6249 1.25 16.2113 1.25C15.7977 1.25 15.4547 1.59 15.4547 2V3.5H8.89731V2C8.89731 1.59 8.55431 1.25 8.14069 1.25C7.72707 1.25 7.38407 1.59 7.38407 2V3.56C4.66025 3.81 3.33868 5.42 3.13692 7.81C3.11674 8.1 3.35886 8.34 3.64133 8.34H20.7106C21.0032 8.34 21.2453 8.09 21.2151 7.81C21.0133 5.42 19.6917 3.81 16.9679 3.56Z" fill="#EB5757"/>
<path opacity="0.4" d="M21.2555 10.8401V12.5801C21.2555 13.1901 20.7107 13.6601 20.1054 13.5601C19.823 13.5201 19.5304 13.4901 19.2379 13.4901C16.1811 13.4901 13.6893 15.9601 13.6893 18.9901C13.6893 19.4501 13.8709 20.0901 14.0626 20.6701C14.2845 21.3201 13.8003 21.9901 13.1042 21.9901H8.1408C4.60992 21.9901 3.09668 19.9901 3.09668 16.9901V10.8301C3.09668 10.2801 3.55065 9.83008 4.1055 9.83008H20.2467C20.8015 9.84008 21.2555 10.2901 21.2555 10.8401Z" fill="#EB5757"/>
<path d="M19.2384 15C17.0089 15 15.2031 16.79 15.2031 19C15.2031 21.21 17.0089 23 19.2384 23C21.4679 23 23.2737 21.21 23.2737 19C23.2737 16.79 21.4679 15 19.2384 15ZM20.8525 20.64C20.7012 20.79 20.5095 20.86 20.3179 20.86C20.1262 20.86 19.9345 20.79 19.7832 20.64L19.2485 20.11L18.6937 20.66C18.5423 20.81 18.3506 20.88 18.159 20.88C17.9673 20.88 17.7756 20.81 17.6243 20.66C17.3317 20.37 17.3317 19.89 17.6243 19.6L18.1792 19.05L17.6445 18.52C17.3519 18.23 17.3519 17.75 17.6445 17.46C17.937 17.17 18.4213 17.17 18.7138 17.46L19.2485 17.99L19.7529 17.49C20.0455 17.2 20.5297 17.2 20.8223 17.49C21.1148 17.78 21.1148 18.26 20.8223 18.55L20.3179 19.05L20.8525 19.58C21.1451 19.88 21.1451 20.35 20.8525 20.64Z" fill="#EB5757"/>
<path d="M8.64554 14.9999C8.38325 14.9999 8.12096 14.8899 7.92928 14.7099C7.74769 14.5199 7.63672 14.2599 7.63672 13.9999C7.63672 13.7399 7.74769 13.4799 7.92928 13.2899C8.16131 13.0599 8.51439 12.9499 8.8473 13.0199C8.90783 13.0299 8.96836 13.0499 9.02889 13.0799C9.08942 13.0999 9.14995 13.1299 9.21048 13.1699C9.26092 13.2099 9.31137 13.2499 9.36181 13.2899C9.54339 13.4799 9.65437 13.7399 9.65437 13.9999C9.65437 14.2599 9.54339 14.5199 9.36181 14.7099C9.31137 14.7499 9.26092 14.7899 9.21048 14.8299C9.14995 14.8699 9.08942 14.8999 9.02889 14.9199C8.96836 14.9499 8.90783 14.9699 8.8473 14.9799C8.77669 14.9899 8.70607 14.9999 8.64554 14.9999Z" fill="#EB5757"/>
<path d="M12.1758 15.0002C11.9135 15.0002 11.6512 14.8902 11.4596 14.7102C11.278 14.5202 11.167 14.2602 11.167 14.0002C11.167 13.7402 11.278 13.4802 11.4596 13.2902C11.8429 12.9202 12.5188 12.9202 12.8921 13.2902C13.0737 13.4802 13.1846 13.7402 13.1846 14.0002C13.1846 14.2602 13.0737 14.5202 12.8921 14.7102C12.7004 14.8902 12.4381 15.0002 12.1758 15.0002Z" fill="#EB5757"/>
<path d="M8.64554 18.4999C8.38325 18.4999 8.12096 18.3899 7.92928 18.2099C7.74769 18.0199 7.63672 17.7599 7.63672 17.4999C7.63672 17.2399 7.74769 16.9799 7.92928 16.7899C8.03016 16.6999 8.13105 16.6299 8.26219 16.5799C8.63546 16.4199 9.07934 16.5099 9.36181 16.7899C9.54339 16.9799 9.65437 17.2399 9.65437 17.4999C9.65437 17.7599 9.54339 18.0199 9.36181 18.2099C9.17013 18.3899 8.90784 18.4999 8.64554 18.4999Z" fill="#EB5757"/>
</svg>
