<svg width="22" height="22" viewBox="0 0 22 22" fill="none" xmlns="http://www.w3.org/2000/svg">
<path d="M15.3537 3.26349V1.8335C15.3537 1.45766 15.0421 1.146 14.6662 1.146C14.2904 1.146 13.9787 1.45766 13.9787 1.8335V3.2085H8.02038V1.8335C8.02038 1.45766 7.70872 1.146 7.33288 1.146C6.95705 1.146 6.64538 1.45766 6.64538 1.8335V3.26349C4.17038 3.49266 2.96956 4.96849 2.78623 7.15933C2.76789 7.42516 2.98789 7.64516 3.24456 7.64516H18.7545C19.0204 7.64516 19.2404 7.41599 19.2129 7.15933C19.0295 4.96849 17.8287 3.49266 15.3537 3.26349Z" fill="#585572"/>
<path opacity="0.4" d="M18.3333 9.02002C18.8375 9.02002 19.25 9.43252 19.25 9.93669V15.5834C19.25 18.3334 17.875 20.1667 14.6667 20.1667H7.33333C4.125 20.1667 2.75 18.3334 2.75 15.5834V9.93669C2.75 9.43252 3.1625 9.02002 3.66667 9.02002H18.3333Z" fill="#585572"/>
<path d="M7.79167 13.7501C7.6725 13.7501 7.55333 13.7227 7.44333 13.6768C7.33333 13.631 7.23251 13.5668 7.14084 13.4843C7.05834 13.3926 6.99415 13.2918 6.94832 13.1818C6.90249 13.0718 6.875 12.9526 6.875 12.8335C6.875 12.7143 6.90249 12.5951 6.94832 12.4851C6.99415 12.3751 7.05834 12.2743 7.14084 12.1827C7.23251 12.1002 7.33333 12.036 7.44333 11.9901C7.66333 11.8985 7.92 11.8985 8.14 11.9901C8.25 12.036 8.35083 12.1002 8.44249 12.1827C8.52499 12.2743 8.58918 12.3751 8.63501 12.4851C8.68085 12.5951 8.70833 12.7143 8.70833 12.8335C8.70833 12.9526 8.68085 13.0718 8.63501 13.1818C8.58918 13.2918 8.52499 13.3926 8.44249 13.4843C8.35083 13.5668 8.25 13.631 8.14 13.6768C8.03 13.7227 7.91083 13.7501 7.79167 13.7501Z" fill="#585572"/>
<path d="M10.9997 13.7502C10.8805 13.7502 10.7613 13.7227 10.6513 13.6769C10.5413 13.631 10.4405 13.5668 10.3488 13.4843C10.1838 13.3102 10.083 13.0719 10.083 12.8335C10.083 12.5952 10.1838 12.3569 10.3488 12.1827C10.4405 12.1002 10.5413 12.036 10.6513 11.9902C10.8713 11.8893 11.128 11.8893 11.348 11.9902C11.458 12.036 11.5588 12.1002 11.6505 12.1827C11.8155 12.3569 11.9163 12.5952 11.9163 12.8335C11.9163 13.0719 11.8155 13.3102 11.6505 13.4843C11.5588 13.5668 11.458 13.631 11.348 13.6769C11.238 13.7227 11.1188 13.7502 10.9997 13.7502Z" fill="#585572"/>
<path d="M7.79167 16.9582C7.6725 16.9582 7.55333 16.9307 7.44333 16.8848C7.33333 16.839 7.23251 16.7748 7.14084 16.6923C6.97584 16.5181 6.875 16.2798 6.875 16.0415C6.875 15.8032 6.97584 15.5648 7.14084 15.3907C7.23251 15.3082 7.33333 15.244 7.44333 15.1981C7.66333 15.1065 7.92 15.1065 8.14 15.1981C8.25 15.244 8.35083 15.3082 8.44249 15.3907C8.60749 15.5648 8.70833 15.8032 8.70833 16.0415C8.70833 16.2798 8.60749 16.5181 8.44249 16.6923C8.35083 16.7748 8.25 16.839 8.14 16.8848C8.03 16.9307 7.91083 16.9582 7.79167 16.9582Z" fill="#585572"/>
</svg>
