<svg width="20" height="21" viewBox="0 0 20 21" fill="none" xmlns="http://www.w3.org/2000/svg">
<path d="M9.99998 8.479C8.35463 8.479 7.02081 9.81282 7.02081 11.4582C7.02081 13.1035 8.35463 14.4373 9.99998 14.4373C11.6453 14.4373 12.9791 13.1035 12.9791 11.4582C12.9791 9.81282 11.6453 8.479 9.99998 8.479Z" fill="#F2F2F2"/>
<path fill-rule="evenodd" clip-rule="evenodd" d="M7.47915 0.229004C6.21349 0.229004 5.18748 1.25502 5.18748 2.52067V2.68436C5.18748 3.10022 4.85036 3.43734 4.4345 3.43734C2.06593 3.43734 0.145813 5.35745 0.145813 7.72603V11.9526C0.145807 13.4224 0.145803 14.5746 0.233325 15.4951C0.322535 16.4333 0.507501 17.2016 0.922523 17.8788C1.35713 18.5881 1.95342 19.1844 2.66264 19.619C3.3399 20.034 4.10816 20.219 5.04641 20.3082C5.9669 20.3957 7.1191 20.3957 8.58883 20.3957H11.4111C12.8808 20.3957 14.0331 20.3957 14.9536 20.3082C15.8918 20.219 16.6601 20.034 17.3373 19.619C18.0465 19.1844 18.6428 18.5881 19.0774 17.8788C19.4925 17.2016 19.6774 16.4333 19.7666 15.4951C19.8542 14.5746 19.8542 13.4224 19.8541 11.9527V7.72603C19.8541 5.35745 17.934 3.43734 15.5655 3.43734C15.1496 3.43734 14.8125 3.10022 14.8125 2.68436V2.52067C14.8125 1.25502 13.7865 0.229004 12.5208 0.229004H7.47915ZM5.64581 11.4582C5.64581 9.05343 7.59524 7.104 9.99998 7.104C12.4047 7.104 14.3541 9.05343 14.3541 11.4582C14.3541 13.8629 12.4047 15.8123 9.99998 15.8123C7.59524 15.8123 5.64581 13.8629 5.64581 11.4582ZM15.5 8.70817C14.9937 8.70817 14.5833 8.29776 14.5833 7.7915C14.5833 7.28524 14.9937 6.87484 15.5 6.87484C16.0062 6.87484 16.4166 7.28524 16.4166 7.7915C16.4166 8.29776 16.0062 8.70817 15.5 8.70817Z" fill="#F2F2F2"/>
</svg>
