<svg width="25" height="24" viewBox="0 0 25 24" fill="none" xmlns="http://www.w3.org/2000/svg">
<path opacity="0.4" d="M21.2553 22.75H3.09646C2.68284 22.75 2.33984 22.41 2.33984 22C2.33984 21.59 2.68284 21.25 3.09646 21.25H21.2553C21.6689 21.25 22.0119 21.59 22.0119 22C22.0119 22.41 21.6689 22.75 21.2553 22.75Z" fill="#585572"/>
<path d="M5.7196 8.37988H4.1055C3.55065 8.37988 3.09668 8.82988 3.09668 9.37988V17.9999C3.09668 18.5499 3.55065 18.9999 4.1055 18.9999H5.7196C6.27445 18.9999 6.72842 18.5499 6.72842 17.9999V9.37988C6.72842 8.81988 6.27445 8.37988 5.7196 8.37988Z" fill="#585572"/>
<path d="M12.9833 5.19043H11.3692C10.8143 5.19043 10.3604 5.64043 10.3604 6.19043V18.0004C10.3604 18.5504 10.8143 19.0004 11.3692 19.0004H12.9833C13.5381 19.0004 13.9921 18.5504 13.9921 18.0004V6.19043C13.9921 5.64043 13.5381 5.19043 12.9833 5.19043Z" fill="#585572"/>
<path d="M20.2469 2H18.6328C18.078 2 17.624 2.45 17.624 3V18C17.624 18.55 18.078 19 18.6328 19H20.2469C20.8018 19 21.2558 18.55 21.2558 18V3C21.2558 2.45 20.8018 2 20.2469 2Z" fill="#585572"/>
</svg>
