<svg width="20" height="20" viewBox="0 0 20 20" fill="none" xmlns="http://www.w3.org/2000/svg">
<path fill-rule="evenodd" clip-rule="evenodd" d="M2.29175 10.0003C2.29175 15.7812 4.21925 17.7087 10.0001 17.7087C15.7809 17.7087 17.7084 15.7812 17.7084 10.0003C17.7084 4.21949 15.7809 2.29199 10.0001 2.29199C4.21925 2.29199 2.29175 4.21949 2.29175 10.0003Z" stroke="#102A51" stroke-width="1.5" stroke-linecap="round" stroke-linejoin="round"/>
<path fill-rule="evenodd" clip-rule="evenodd" d="M8.83222 7.32004C8.83222 8.13087 8.17555 8.78754 7.36472 8.78754C6.55472 8.78754 5.89722 8.13087 5.89722 7.32004C5.89722 6.50921 6.55472 5.85254 7.36472 5.85254C8.17555 5.85254 8.83222 6.50921 8.83222 7.32004Z" stroke="#102A51" stroke-width="1.5" stroke-linecap="round" stroke-linejoin="round"/>
<path d="M17.6003 12.2222C16.8661 11.4672 15.8278 9.94141 13.9203 9.94141C12.0128 9.94141 11.9711 13.3064 10.0244 13.3064C8.07692 13.3064 7.29276 12.1639 6.02359 12.7606C4.75526 13.3564 3.72192 15.7281 3.72192 15.7281" stroke="#102A51" stroke-width="1.5" stroke-linecap="round" stroke-linejoin="round"/>
</svg>
