<svg width="18" height="18" viewBox="0 0 18 18" fill="none" xmlns="http://www.w3.org/2000/svg">
<path fill-rule="evenodd" clip-rule="evenodd" d="M12.6028 13.5348H5.44828C5.03803 13.5348 4.70508 13.2311 4.70508 12.8568C4.70508 12.4825 5.03803 12.1787 5.44828 12.1787H12.6028C13.0131 12.1787 13.346 12.4825 13.346 12.8568C13.346 13.2311 13.0131 13.5348 12.6028 13.5348Z" fill="#102A51"/>
<path fill-rule="evenodd" clip-rule="evenodd" d="M12.6028 9.74967H5.44828C5.03803 9.74967 4.70508 9.4459 4.70508 9.07161C4.70508 8.69732 5.03803 8.39355 5.44828 8.39355H12.6028C13.0131 8.39355 13.346 8.69732 13.346 9.07161C13.346 9.4459 13.0131 9.74967 12.6028 9.74967Z" fill="#102A51"/>
<path fill-rule="evenodd" clip-rule="evenodd" d="M8.1783 5.97623H5.44828C5.03803 5.97623 4.70508 5.67246 4.70508 5.29818C4.70508 4.92389 5.03803 4.62012 5.44828 4.62012H8.1783C8.58854 4.62012 8.9215 4.92389 8.9215 5.29818C8.9215 5.67246 8.58854 5.97623 8.1783 5.97623Z" fill="#102A51"/>
<mask id="mask0_381_37795" style="mask-type:luminance" maskUnits="userSpaceOnUse" x="0" y="0" width="18" height="18">
<path fill-rule="evenodd" clip-rule="evenodd" d="M0 0H18V18H0V0Z" fill="white"/>
</mask>
<g mask="url(#mask0_381_37795)">
<path fill-rule="evenodd" clip-rule="evenodd" d="M12.788 1.35352L5.16869 1.35713C2.8618 1.36979 1.48242 2.67166 1.48242 4.84054V13.1544C1.48242 15.3378 2.87468 16.6415 5.20437 16.6415L12.8236 16.6388C15.1305 16.6261 16.5099 15.3224 16.5099 13.1544V4.84054C16.5099 2.6572 15.1187 1.35352 12.788 1.35352ZM5.20933 18.0002C2.09384 18.0002 0 16.0537 0 13.157V4.84314C0 1.92026 2.02844 0.0207938 5.16772 0.00361631L12.791 0H12.792C15.9074 0 18.0003 1.94648 18.0003 4.84314V13.157C18.0003 16.079 15.9719 17.9794 12.8326 17.9975L5.20933 18.0002Z" fill="#102A51"/>
</g>
</svg>
