<svg width="24" height="28" viewBox="0 0 24 28" fill="none" xmlns="http://www.w3.org/2000/svg">
<path d="M6.7366 25.2148C5.93189 23.9059 5.34061 22.5098 5.07109 20.9886C4.41533 17.286 5.13557 13.8849 7.32079 10.8185C8.27058 9.48624 9.42154 8.32519 10.4455 7.0541C11.3418 5.94058 12.0001 4.72353 12.1684 3.27076C12.2806 2.30506 12.1349 1.58551 11.5487 0.5C12.0987 0.638701 12.5159 0.9428 12.8886 1.30355C13.4354 1.82905 13.7978 2.47567 14.0609 3.1848C14.0983 3.28573 14.1415 3.38471 14.1821 3.48434C14.1266 3.54946 14.1686 3.60416 14.1853 3.66537C14.2939 4.08361 14.3621 4.51147 14.3891 4.94298C14.4955 6.45892 14.1421 7.88239 13.5102 9.24986C12.9131 10.5418 12.1561 11.7374 11.3521 12.9017C9.89418 15.0089 8.78319 17.2756 8.16934 19.7748C7.92211 20.7369 7.75857 21.7189 7.68059 22.7097C7.62062 23.5927 7.49102 24.4731 7.60901 25.3606C7.63094 25.5293 7.56517 25.5879 7.40655 25.5169C7.1828 25.4186 6.9597 25.3164 6.7366 25.2148Z" fill="#FF9160"/>
<path d="M6.7368 25.2148C6.95991 25.3164 7.18301 25.4186 7.40675 25.5189C7.56537 25.5899 7.63114 25.5313 7.60922 25.3626C7.49122 24.4751 7.62082 23.5947 7.68079 22.7117C7.75866 21.7202 7.9222 20.7375 8.16955 19.7749C8.7834 17.2737 9.89438 15.0069 11.3503 12.8997C12.155 11.7354 12.9114 10.5399 13.5085 9.24794C14.1404 7.88047 14.4937 6.457 14.3873 4.94106C14.3609 4.51027 14.2933 4.08307 14.1855 3.6654C14.1688 3.60419 14.1268 3.54624 14.1823 3.48438C14.949 4.18439 15.3642 5.08301 15.6157 6.07411C15.6344 6.14704 15.6589 6.21867 15.6802 6.2903C15.7092 6.7878 15.831 7.27618 15.8143 7.77693C15.8143 9.69856 15.076 11.3812 14.143 12.9987C13.4285 14.236 12.5709 15.3788 11.8372 16.6023C10.1678 19.3874 9.22186 22.3978 9.0252 25.6537C8.99231 26.1935 8.98586 26.734 8.97813 27.294C7.1469 26.9378 5.51427 26.2 4.10603 25.0149C1.13479 22.5131 -0.253458 19.2897 0.0379909 15.3977C0.415843 10.3595 4.25562 6.19978 9.19929 5.36953C9.76124 5.28106 10.3284 5.23081 10.897 5.21911C11.1195 5.2126 11.1453 5.27576 11.0325 5.44832C10.8319 5.75568 10.6282 6.06108 10.4347 6.373C10.3451 6.51821 10.2078 6.51951 10.0698 6.53253C5.95531 6.93561 2.5901 9.86005 1.53263 13.9481C0.405526 18.311 2.52111 23.0646 6.5021 25.108C6.57689 25.1471 6.65878 25.1796 6.7368 25.2148Z" fill="#442463"/>
<path d="M12.1594 26.1564C13.1644 26.0489 14.1448 25.7743 15.061 25.3437C17.173 24.3539 18.7495 22.8054 19.7906 20.6982C19.8841 20.5094 19.9886 20.4143 20.2014 20.4117C20.4799 20.4078 20.7578 20.3746 21.0364 20.357C21.1105 20.3518 21.1853 20.357 21.2762 20.357C21.2414 20.6032 21.1325 20.8031 21.0344 21.0036C19.2191 24.7305 16.2711 26.8723 12.1904 27.4288C11.7661 27.4861 11.3328 27.4685 10.904 27.4985C10.7009 27.5128 10.599 27.4281 10.5171 27.2452C9.71694 25.446 9.65955 23.6025 10.2992 21.7636C11.2825 18.9368 13.2401 17.1259 16.1727 16.6245C19.1329 16.1185 21.6734 16.9885 23.5401 19.4857C23.7296 19.749 23.8839 20.0362 23.9992 20.3401C21.0557 19.5463 18.2947 19.9181 15.7593 21.6047C14.1022 22.7052 12.9422 24.2445 12.1594 26.1564Z" fill="#4F8E26"/>
<path d="M15.8119 7.77692C15.8286 7.27617 15.7068 6.78778 15.6777 6.29028C17.1008 6.91606 18.2976 7.85311 19.3067 9.03109C21.1869 11.2197 22.087 13.7762 22.0374 16.6733C22.0374 16.7384 22.0374 16.8035 22.0303 16.8687C22.0168 17.0197 22.0006 17.1701 21.9839 17.3388C21.6163 17.1474 21.2604 16.9579 20.9 16.7775C20.7362 16.6948 20.7994 16.5535 20.8 16.435C20.8086 14.1176 20.1049 12.0482 18.6889 10.2266C17.9719 9.30202 17.0934 8.51768 16.0969 7.91237C16.0079 7.85832 15.9292 7.77236 15.8119 7.77692Z" fill="#4F8E26"/>
</svg>
