<svg width="14" height="14" viewBox="0 0 14 14" fill="none" xmlns="http://www.w3.org/2000/svg">
<path d="M0.724866 12.3916C0.480788 12.6356 0.480788 13.0314 0.724866 13.2754C0.968943 13.5195 1.36467 13.5195 1.60875 13.2754L7.00015 7.88403L12.3916 13.2754C12.6356 13.5195 13.0314 13.5195 13.2754 13.2754C13.5195 13.0314 13.5195 12.6356 13.2754 12.3916L7.88404 7.00015L13.2754 1.60877C13.5195 1.36469 13.5195 0.968964 13.2754 0.724887C13.0313 0.480808 12.6356 0.480808 12.3915 0.724887L7.00015 6.11627L1.60877 0.724885C1.36469 0.480807 0.968964 0.480807 0.724887 0.724885C0.480809 0.968962 0.480809 1.36469 0.724887 1.60877L6.11627 7.00015L0.724866 12.3916Z" fill="#2D264B"/>
</svg>
