<svg width="32" height="32" viewBox="0 0 32 32" fill="none" xmlns="http://www.w3.org/2000/svg">
<path d="M15.4666 18.1334C17.2339 18.1334 18.6666 16.7007 18.6666 14.9334C18.6666 13.1661 17.2339 11.7334 15.4666 11.7334C13.6993 11.7334 12.2666 13.1661 12.2666 14.9334C12.2666 16.7007 13.6993 18.1334 15.4666 18.1334Z" fill="#004D99"/>
<path d="M27.2001 18.6669C29.262 18.6669 30.9335 16.9954 30.9335 14.9335C30.9335 12.8717 29.262 11.2002 27.2001 11.2002C25.1383 11.2002 23.4668 12.8717 23.4668 14.9335C23.4668 16.9954 25.1383 18.6669 27.2001 18.6669Z" fill="#004D99"/>
<path d="M15.1998 27.2002C17.0441 27.2002 18.779 26.6909 20.2665 25.8002V21.8669C20.2665 20.3943 19.0724 19.2002 17.5998 19.2002H13.3332C11.8606 19.2002 10.6665 20.3943 10.6665 21.8669V26.0877C12.0254 26.7943 13.5652 27.2002 15.1998 27.2002Z" fill="#004D99"/>
<path d="M12.9176 5.85721L11.3432 4.91534C11.2226 4.84388 11.084 4.79961 10.9336 4.79961C10.517 4.79961 10.1336 5.14308 10.1336 5.59961C10.1336 5.89134 10.2909 6.14361 10.524 6.28334L12.3912 7.39161C11.1181 10.1847 8.73623 13.8663 5.85996 13.8663C3.97516 13.8663 2.66689 12.2343 2.66689 10.4012C2.66689 8.01614 3.65996 5.36014 5.01143 3.08441L6.79063 4.14948C6.91116 4.22201 7.04983 4.26628 7.20023 4.26628C7.64236 4.26628 8.00023 3.90788 8.00023 3.46628C8.00023 3.17454 7.84289 2.92228 7.60983 2.78254C6.71756 2.25081 6.37889 2.04921 6.06796 1.86414C5.77249 1.68814 5.36503 1.59961 5.01356 1.59961C4.46636 1.59961 3.82956 1.92388 3.45996 2.57028C2.10529 4.93988 1.06689 7.70788 1.06689 10.3591C1.06689 13.0209 3.01676 15.4663 5.70316 15.4663C9.36609 15.4663 11.997 11.8977 13.6808 8.36921C13.8061 8.10734 13.8669 7.82148 13.8669 7.53134C13.8669 6.84494 13.5064 6.20974 12.9176 5.85721Z" fill="#004D99"/>
<path d="M23.4665 3.46699C23.4665 3.02486 23.1081 2.66699 22.6665 2.66699C22.3534 2.66699 22.0846 2.84886 21.9534 3.11126L20.8867 5.24459C20.8329 5.35233 20.7998 5.47179 20.7998 5.60033C20.7998 6.04246 21.1582 6.40033 21.5998 6.40033C21.9129 6.40033 22.1817 6.21846 22.3129 5.95606L23.3795 3.82273C23.4334 3.71499 23.4665 3.59553 23.4665 3.46699Z" fill="#004D99"/>
<path d="M16.5332 2.93379C16.5332 2.49219 16.8916 2.13379 17.3332 2.13379C17.7748 2.13379 18.1332 2.49219 18.1332 2.93379V5.06712C18.1332 5.50872 17.7748 5.86712 17.3332 5.86712C16.8916 5.86712 16.5332 5.50872 16.5332 5.06712V2.93379Z" fill="#004D99"/>
<path d="M26.4 5.86621C26.1792 5.86621 25.9792 5.95581 25.8341 6.10034L24.2341 7.70034C24.0896 7.84541 24 8.04541 24 8.26621C24 8.70781 24.3579 9.06621 24.8 9.06621C25.0208 9.06621 25.2208 8.97661 25.3659 8.83208L26.9659 7.23208C27.1104 7.08701 27.2 6.88701 27.2 6.66621C27.2 6.22461 26.8421 5.86621 26.4 5.86621Z" fill="#004D99"/>
<path d="M27.2 19.7332C26.7445 19.7332 26.3045 19.6655 25.8869 19.546C24.8613 24.5199 20.4778 28.2666 15.2 28.2666C9.16157 28.2666 4.26663 23.3716 4.26663 17.3332C4.26663 16.9983 4.28637 16.6682 4.31623 16.3407C3.57597 16.1396 2.89383 15.7823 2.2997 15.3018C2.2053 15.9396 2.1333 16.681 2.1333 17.3332C2.1333 24.5498 7.98343 30.3999 15.2 30.3999C21.6224 30.3999 26.9482 25.761 28.0453 19.6538C27.7706 19.7034 27.489 19.7332 27.2 19.7332Z" fill="#004D99"/>
</svg>
