<svg width="24" height="21" viewBox="0 0 24 21" fill="none" xmlns="http://www.w3.org/2000/svg">
<path fill-rule="evenodd" clip-rule="evenodd" d="M2.43614 4.35642H6.4708V19.7183H0.761271V6.03782C0.761271 5.12062 1.5226 4.35642 2.43614 4.35642ZM1.59882 11.6935H3.27362V9.63004H1.59882V11.6935ZM5.63348 11.6935H3.95869V9.63004H5.63348V11.6935ZM5.63348 7.03145H3.95869V9.01855H5.63348V7.03145ZM1.59882 7.03145H3.27362V9.01855H1.59882V7.03145Z" fill="#FF9160"/>
<path fill-rule="evenodd" clip-rule="evenodd" d="M11.0384 1.91068H12.9414V3.51556H14.6162V5.42623H12.9414V7.10764H11.0384V5.42623H9.36359V3.51556H11.0384V1.91068Z" fill="#FF9160"/>
<path fill-rule="evenodd" clip-rule="evenodd" d="M17.5092 4.35642H21.5439C22.4575 4.35642 23.2187 5.12068 23.2187 6.03782V19.7183H17.5092L17.5092 4.35642ZM18.3466 11.6935H20.0214V9.63004H18.3466V11.6935ZM22.3812 11.6935H20.7064V9.63004H22.3812V11.6935ZM22.3812 7.03145H20.7064V9.01855H22.3812V7.03145ZM18.3466 7.03145H20.0214V9.01855H18.3466V7.03145Z" fill="#FF9160"/>
<path fill-rule="evenodd" clip-rule="evenodd" d="M8.98269 0H14.9965C15.9101 0 16.6713 0.764233 16.6713 1.6814V19.7178H14.1592V13.9858H9.82015V19.7178H7.30804V1.6814C7.30804 0.764233 8.06927 0 8.98284 0H8.98269ZM12.0277 0.687859C14.1593 0.687859 15.9103 2.44564 15.9103 4.66196C15.9103 6.80195 14.1594 8.55988 12.0277 8.55988C9.82 8.55988 8.06916 6.8021 8.06916 4.66196C8.06916 2.4456 9.82004 0.687859 12.0277 0.687859Z" fill="#FF9160"/>
<path fill-rule="evenodd" clip-rule="evenodd" d="M0 18.4185H24V21H0V18.4185Z" fill="#FF9160"/>
</svg>
