<svg width="24" height="28" viewBox="0 0 24 28" fill="none" xmlns="http://www.w3.org/2000/svg">
<path d="M8.49636 25.892L6.17071 24.0004C6.13978 23.9695 6.0777 23.9383 6.04677 23.9383H2.38764C2.23256 23.9383 2.13955 23.8144 2.13955 23.6593V12.0621C2.13955 11.597 2.29463 11.163 2.60459 10.8219L4.77514 7.69004C4.83721 7.59703 4.93022 7.53495 5.05416 7.53495H9.55036C9.6743 7.53495 9.76753 7.59703 9.82939 7.69004L11.9999 10.8219C12.3101 11.163 12.465 11.5971 12.465 12.0621V15.535C12.465 15.721 12.7131 15.7522 12.7752 15.5971C13.1472 14.7909 13.7675 14.1087 14.5116 13.6746C14.5737 13.6437 14.6046 13.5816 14.6046 13.4886V11.225C14.6046 10.6979 14.4186 10.2017 14.0775 9.7985L10.7594 5.4574C10.6664 5.33346 10.5113 5.24023 10.3563 5.24023H4.24811C4.09302 5.24023 3.93794 5.30231 3.84493 5.4574L0.527119 9.7985C0.186013 10.1705 0 10.6976 0 11.225V24.2796C0 25.396 0.837289 26.2951 1.89153 26.2951H8.37233C8.55835 26.2639 8.65136 26.0468 8.49627 25.8919L8.49636 25.892Z" fill="#006D5B"/>
<path d="M2.17139 0.744263V3.47308C2.17139 3.87626 2.57457 4.21734 3.1017 4.21734H11.536C12.0322 4.21734 12.4664 3.87623 12.4664 3.47308L12.4661 0.744263C12.4661 0.341084 12.063 0 11.5358 0H3.10148C2.60551 0 2.17139 0.341106 2.17139 0.744263ZM3.93877 0.775193C4.00085 0.775193 4.03178 0.806124 4.03178 0.868203V3.41102C4.03178 3.44195 4.00085 3.50403 3.93877 3.50403H3.16355C3.10147 3.50403 3.07054 3.4731 3.07054 3.41102V0.868203C3.07054 0.837272 3.10147 0.775193 3.16355 0.775193H3.93877Z" fill="#006D5B"/>
<path d="M15.8459 22.2022C15.7838 22.1712 15.7529 22.1091 15.6908 22.0782L10.8226 18.078C10.1713 17.5509 9.3342 17.2407 8.49691 17.3028C7.5666 17.3649 6.72931 17.7678 6.14031 18.4812C4.96193 19.9077 5.1791 22.0161 6.60535 23.1945L11.4117 27.1636C12.8071 28.3109 14.8847 28.156 16.063 26.7916C16.1561 26.6677 16.2802 26.5435 16.3421 26.3884C16.373 26.3263 16.373 26.2333 16.3421 26.1713C15.5978 25.0858 15.4118 23.6905 15.8459 22.4503C15.908 22.3261 15.908 22.264 15.8459 22.2022ZM12.3109 21.4579L10.2333 24.0007C10.1713 24.0937 10.0162 24.0937 9.92316 24.0316L7.53544 22.078C7.10133 21.706 6.85325 21.1789 6.85325 20.6515C6.85325 20.2484 6.97719 19.8142 7.28736 19.4732C7.93865 18.6979 9.08586 18.574 9.89203 19.2251L12.2797 21.1787C12.373 21.241 12.4039 21.3649 12.3109 21.4579Z" fill="#006D5B"/>
<path d="M21.7994 21.2411C20.404 20.1557 18.3883 20.4039 17.3032 21.7992C16.2177 23.1945 16.4659 25.2103 17.8612 26.2954C19.2565 27.3808 21.2723 27.1327 22.3574 25.7373C23.4428 24.3729 23.1947 22.3575 21.7994 21.2411ZM21.8303 24.9001L21.3962 25.4581C21.3652 25.5202 21.2722 25.5202 21.2102 25.489L17.7682 22.7913C17.7061 22.7604 17.7061 22.6674 17.7373 22.6053L18.1714 22.0473C18.2023 21.9852 18.2953 21.9852 18.3574 22.0163L21.7994 24.714C21.8612 24.7761 21.8612 24.838 21.8303 24.9001Z" fill="#006D5B"/>
<path d="M19.8145 17.272C19.8145 15.5044 18.388 14.0781 16.6206 14.0781C14.853 14.0781 13.4268 15.5046 13.4268 17.272C13.4268 19.0396 14.8533 20.4659 16.6206 20.4659C18.3883 20.4968 19.8145 19.0704 19.8145 17.272ZM14.264 17.6441V16.9309C14.264 16.8688 14.3261 16.807 14.3879 16.807H18.7602C18.8223 16.807 18.8841 16.869 18.8841 16.9309V17.6441C18.8841 17.7061 18.8221 17.768 18.7602 17.768H14.3879C14.3261 17.768 14.264 17.7061 14.264 17.6441Z" fill="#006D5B"/>
</svg>
