<svg width="20" height="20" viewBox="0 0 20 20" fill="none" xmlns="http://www.w3.org/2000/svg">
<path d="M14.333 10.333C12.1247 10.333 10.333 12.1247 10.333 14.333C10.333 15.083 10.5413 15.7914 10.9163 16.3914C11.608 17.5497 12.8747 18.333 14.333 18.333C15.7913 18.333 17.0663 17.5497 17.7497 16.3914C18.1163 15.7914 18.333 15.083 18.333 14.333C18.333 12.1247 16.5413 10.333 14.333 10.333ZM16.3163 13.808L14.183 15.7747C14.0663 15.883 13.908 15.9414 13.758 15.9414C13.5997 15.9414 13.4413 15.883 13.3163 15.758L12.333 14.7747C12.0913 14.533 12.0913 14.133 12.333 13.8914C12.5747 13.6497 12.9747 13.6497 13.2163 13.8914L13.7747 14.4497L15.4663 12.883C15.7163 12.6497 16.1163 12.6663 16.3497 12.9163C16.583 13.1747 16.5663 13.5747 16.3163 13.808Z" fill="#22C55E"/>
<path opacity="0.4" d="M18.3337 7.24134C18.3337 8.233 18.1753 9.14967 17.9003 9.99967C17.7253 10.558 17.5003 11.0913 17.2337 11.583C16.5003 10.808 15.4753 10.333 14.3337 10.333C12.1253 10.333 10.3337 12.1247 10.3337 14.333C10.3337 15.358 10.7253 16.2913 11.3587 16.9997C11.0503 17.1413 10.767 17.258 10.517 17.3413C10.2337 17.4413 9.76699 17.4413 9.48366 17.3413C7.47533 16.658 3.41699 14.1663 2.10033 9.99967C1.82533 9.14967 1.66699 8.233 1.66699 7.24134C1.66699 4.66634 3.74199 2.58301 6.30033 2.58301C7.80866 2.58301 9.15866 3.31632 10.0003 4.44132C10.842 3.31632 12.192 2.58301 13.7003 2.58301C16.2587 2.58301 18.3337 4.66634 18.3337 7.24134Z" fill="#22C55E"/>
</svg>
