<svg width="94" height="94" viewBox="0 0 94 94" fill="none" xmlns="http://www.w3.org/2000/svg">
<path opacity="0.4" d="M46.9997 86.1668C68.6308 86.1668 86.1663 68.6313 86.1663 47.0002C86.1663 25.369 68.6308 7.83351 46.9997 7.8335C25.3685 7.8335 7.833 25.369 7.833 47.0002C7.833 68.6313 25.3685 86.1668 46.9997 86.1668Z" fill="#006D5B"/>
<path d="M41.4386 61.0214C40.6553 61.0214 39.9111 60.7081 39.3628 60.1598L28.2786 49.0756C27.1428 47.9398 27.1428 46.0598 28.2786 44.9239C29.4145 43.7881 31.2945 43.7881 32.4303 44.9239L41.4386 53.9323L61.5703 33.8006C62.7061 32.6648 64.5861 32.6648 65.722 33.8006C66.8578 34.9364 66.8578 36.8164 65.722 37.9523L43.5145 60.1598C42.9661 60.7081 42.222 61.0214 41.4386 61.0214Z" fill="#006D5B"/>
</svg>
