<svg width="24" height="24" viewBox="0 0 24 24" fill="none" xmlns="http://www.w3.org/2000/svg">
<path opacity="0.4" d="M21.6599 10.44L20.6799 14.62C19.8399 18.23 18.1799 19.69 15.0599 19.39C14.5599 19.35 14.0199 19.26 13.4399 19.12L11.7599 18.72C7.58994 17.73 6.29994 15.67 7.27994 11.49L8.25994 7.30001C8.45994 6.45001 8.69994 5.71001 8.99994 5.10001C10.1699 2.68001 12.1599 2.03001 15.4999 2.82001L17.1699 3.21001C21.3599 4.19001 22.6399 6.26001 21.6599 10.44Z" fill="#949BA3"/>
<path d="M15.0601 19.3901C14.4401 19.8101 13.6601 20.1601 12.7101 20.4701L11.1301 20.9901C7.1601 22.2701 5.0701 21.2001 3.7801 17.2301L2.5001 13.2801C1.2201 9.3101 2.2801 7.2101 6.2501 5.9301L7.8301 5.4101C8.2401 5.2801 8.6301 5.1701 9.0001 5.1001C8.7001 5.7101 8.4601 6.4501 8.2601 7.3001L7.2801 11.4901C6.3001 15.6701 7.5901 17.7301 11.7601 18.7201L13.4401 19.1201C14.0201 19.2601 14.5601 19.3501 15.0601 19.3901Z" fill="#949BA3"/>
<path d="M17.4901 10.5098C17.4301 10.5098 17.3701 10.4998 17.3001 10.4898L12.4501 9.25978C12.0501 9.15978 11.8101 8.74978 11.9101 8.34978C12.0101 7.94978 12.4201 7.70978 12.8201 7.80978L17.6701 9.03978C18.0701 9.13978 18.3101 9.54978 18.2101 9.94978C18.1301 10.2798 17.8201 10.5098 17.4901 10.5098Z" fill="#949BA3"/>
<path d="M14.5599 13.8899C14.4999 13.8899 14.4399 13.8799 14.3699 13.8699L11.4599 13.1299C11.0599 13.0299 10.8199 12.6199 10.9199 12.2199C11.0199 11.8199 11.4299 11.5799 11.8299 11.6799L14.7399 12.4199C15.1399 12.5199 15.3799 12.9299 15.2799 13.3299C15.1999 13.6699 14.8999 13.8899 14.5599 13.8899Z" fill="#949BA3"/>
</svg>
