<svg width="94" height="94" viewBox="0 0 94 94" fill="none" xmlns="http://www.w3.org/2000/svg">
<path opacity="0.4" d="M85.148 36.9735L7.833 36.9735L7.833 25.1452C7.83301 15.5885 15.588 7.8335 25.1447 7.8335L34.2705 7.8335C40.6547 7.8335 42.6522 9.90934 45.198 13.3168L50.6813 20.6018C51.8955 22.2077 52.0522 22.4427 54.3238 22.4427L65.2513 22.4427C74.5338 22.4035 82.4455 28.5135 85.148 36.9735Z" fill="#006D5B"/>
<path d="M86.1272 42.4565C86.0489 40.5373 85.7355 38.7357 85.148 36.9732L7.83301 36.9731L7.833 65.2123C7.833 76.7665 17.233 86.1665 28.7872 86.1665L65.2122 86.1665C76.7663 86.1665 86.1663 76.7665 86.1663 65.2123L86.1664 43.3573C86.1664 43.0832 86.1664 42.7307 86.1272 42.4565ZM56.948 62.549L48.5272 69.9123C48.0963 70.304 47.548 70.4998 46.9997 70.4998C46.4513 70.4998 45.903 70.304 45.4722 69.9123L37.0513 62.549C34.388 60.199 34.0355 56.204 36.2288 53.4232C38.5005 50.6032 42.4955 50.094 45.3938 52.2482L46.9605 53.4232L48.5272 52.2482C51.4255 50.094 55.4205 50.6032 57.6922 53.4232C59.9638 56.204 59.6113 60.199 56.948 62.549Z" fill="#006D5B"/>
</svg>
