<svg width="45" height="43" viewBox="0 0 45 43" fill="none" xmlns="http://www.w3.org/2000/svg">
<mask id="mask0_381_46123" style="mask-type:luminance" maskUnits="userSpaceOnUse" x="0" y="0" width="45" height="43">
<path d="M0 0H45V42.9107H0V0Z" fill="white"/>
</mask>
<g mask="url(#mask0_381_46123)">
<path fill-rule="evenodd" clip-rule="evenodd" d="M11.422 7.47764C11.1477 6.89191 10.7717 6.352 10.3055 5.88584C9.82083 5.40119 9.25706 5.01413 8.64434 4.7373C7.76226 2.78486 5.79761 1.4257 3.51563 1.4257C3.12734 1.4257 2.8125 1.74054 2.8125 2.12883V4.73103C2.2252 4.40615 1.57572 4.23822 0.703125 4.23822C0.00408217 4.23822 0 4.67924 0 4.94134V26.0351C0 26.1895 0.0508505 26.3396 0.144707 26.4623C0.144707 26.4623 7.97423 36.7006 9.14069 38.2266V42.2071C9.14069 42.5954 9.45553 42.9102 9.84382 42.9102H21.7969C22.1849 42.9102 22.4998 42.5957 22.5001 42.2077C22.5004 42.5957 22.8152 42.9102 23.2032 42.9102H35.1563C35.5446 42.9102 35.8594 42.5954 35.8594 42.2071V38.2266L44.8554 26.4623C44.9493 26.3396 45.0001 26.1895 45.0001 26.0351V4.94134C45.0001 4.94134 44.9979 4.23822 44.297 4.23822C43.4244 4.23822 42.775 4.40615 42.1876 4.73103V2.12883C42.1876 1.74054 41.8728 1.4257 41.4845 1.4257C39.2025 1.4257 37.2378 2.78486 36.3558 4.7373C35.7431 5.01415 35.179 5.40119 34.6947 5.88584C34.2285 6.35198 33.8525 6.89192 33.5781 7.47764C31.7995 3.10508 27.5073 0.0195312 22.5001 0.0195312C17.4928 0.0195312 13.2003 3.10508 11.422 7.47764ZM22.5001 36.0068C22.4847 36.0483 22.4693 36.0897 22.4536 36.1308C22.1463 36.9328 22.1564 37.5481 22.2333 38.346C22.3227 39.2748 22.5001 40.4173 22.5001 42.2049C22.5004 40.4173 22.6777 39.2747 22.7669 38.346C22.8438 37.548 22.8535 36.9328 22.5465 36.1308C22.5308 36.09 22.5155 36.0486 22.5001 36.0068ZM3.01026 6.62907C2.50489 6.16136 2.04469 5.84119 1.40657 5.71091V25.797C2.57304 27.3222 10.4026 37.5613 10.4026 37.5613C10.4964 37.684 10.5473 37.834 10.5473 37.9885V41.5041H21.0837C21.0457 40.1694 20.9073 39.2494 20.8332 38.4807C20.7343 37.4523 20.7441 36.6613 21.1402 35.6277C21.5941 34.4427 21.9237 32.8572 21.3345 31.1713C20.724 29.4242 19.1438 27.6045 15.8574 25.9613C15.0403 25.5526 14.4018 25.0528 13.6818 24.3629C13.6425 24.3375 13.387 24.0879 13.3606 24.0487C12.6723 23.3625 11.8828 22.5036 10.7899 21.3959C10.7622 21.3721 10.7365 21.346 10.713 21.3181C10.32 20.9207 9.88865 20.4922 9.40932 20.0286C8.59635 19.2423 7.38938 19.0175 6.46873 19.6748L6.46748 19.6758C5.90372 20.0785 5.53365 20.6987 5.44734 21.3865C5.31457 22.5105 5.9546 23.2319 5.98473 23.2648C9.30854 26.599 12.4516 29.7581 12.4516 29.7581C12.7253 30.0331 12.7241 30.4788 12.4491 30.7525C12.1738 31.0262 11.7284 31.025 11.4547 30.75C11.4547 30.75 8.30727 27.5863 4.98065 24.2495L4.97155 24.2401C4.97155 24.2401 3.83023 23.0777 4.05154 21.2183L4.05185 21.2142C4.14476 20.469 4.45049 19.7743 4.92228 19.2077L4.92197 14.4337V10.5665C4.92197 9.26106 4.40341 8.00925 3.48028 7.08635C3.33494 6.94102 3.19777 6.80541 3.06374 6.67954C3.0449 6.66385 3.0267 6.6469 3.00975 6.62932L3.01026 6.62907ZM31.3185 24.3623C30.5984 25.0519 29.96 25.552 29.1429 25.9607C25.8564 27.6039 24.2763 29.4233 23.6657 31.1707C23.0766 32.8569 23.4062 34.4424 23.8601 35.6271C24.2559 36.6607 24.2659 37.4517 24.167 38.4801C24.093 39.2488 23.9545 40.1692 23.9165 41.5035H34.453V37.9879C34.453 37.8334 34.5038 37.6834 34.5977 37.5607L43.5937 25.7964V5.71031C42.9555 5.84058 42.4953 6.16075 41.99 6.62847C41.973 6.64605 41.9548 6.663 41.936 6.6787C41.8023 6.80457 41.6648 6.94017 41.5195 7.0855C40.5963 8.00865 40.078 9.26045 40.078 10.5657V14.4329L40.0777 19.2069C40.5495 19.7735 40.8549 20.4681 40.9478 21.2133L40.9481 21.2174C41.1694 23.077 40.0281 24.2392 40.0281 24.2392L40.019 24.2487C36.6926 27.5853 33.5449 30.7492 33.5449 30.7492C33.2712 31.0241 32.8258 31.0254 32.5505 30.7517C32.2752 30.4779 32.2743 30.0322 32.548 29.7572C32.548 29.7572 35.691 26.5979 39.0149 23.264C39.0447 23.231 39.6851 22.5094 39.5523 21.3856C39.466 20.6982 39.0962 20.078 38.5325 19.6749L38.5312 19.674C37.6109 19.0167 36.4036 19.2414 35.5906 20.0277C35.1113 20.4914 34.2378 21.3712 34.2101 21.3951C33.1174 22.5025 32.3277 23.3613 31.6393 24.0478C31.613 24.0871 31.3574 24.3369 31.3182 24.362L31.3185 24.3623ZM30.2346 21.083C28.1488 22.8556 25.4486 23.9253 22.5002 23.9253C19.5521 23.9253 16.8517 22.8556 14.7659 21.083V23.4861C15.3146 23.9906 15.8394 24.3788 16.4866 24.7025C19.9684 26.4434 21.7133 28.4162 22.5002 30.2852C23.2872 28.4162 25.0321 26.4434 28.5139 24.7025C29.1611 24.3789 29.6859 23.9906 30.2346 23.4861V21.083ZM22.5002 1.42522C28.3212 1.42522 33.0471 6.15118 33.0471 11.9721C33.0471 17.793 28.3212 22.519 22.5002 22.519C16.6793 22.519 11.9534 17.793 11.9534 11.9721C11.9534 6.15118 16.6793 1.42522 22.5002 1.42522ZM33.0471 17.5987C32.6507 18.3395 32.1785 19.0338 31.6409 19.6717V22.061C32.0486 21.6285 32.5066 21.1391 33.0471 20.582V17.5987ZM11.9534 17.5987V20.5816C12.4939 21.1388 12.9519 21.6281 13.3596 22.0607V19.6714C12.8219 19.0338 12.3498 18.3395 11.9534 17.5984V17.5987ZM9.13082 6.7095C9.13773 6.82219 9.14087 6.93582 9.14087 7.0504V18.1855C9.59131 18.3776 10.0154 18.6576 10.387 19.0173C10.441 19.0698 10.4944 19.1216 10.5468 19.1724V9.86303C10.5468 8.7443 10.1023 7.67113 9.31133 6.88009C9.25263 6.8214 9.19236 6.76458 9.13053 6.70965L9.13082 6.7095ZM35.8697 6.7095C35.8078 6.76444 35.7476 6.82125 35.6889 6.87995C34.8975 7.67128 34.453 8.74415 34.453 9.86289V19.1723C34.5055 19.1211 34.5588 19.0693 34.6128 19.0172C34.9848 18.6575 35.4085 18.3775 35.8593 18.1853V7.05025C35.8593 6.93568 35.8628 6.82173 35.8694 6.70936L35.8697 6.7095ZM25.3123 9.15975V5.64413C25.3123 5.25584 24.9975 4.941 24.6092 4.941H20.3905C20.0022 4.941 19.6873 5.25584 19.6873 5.64413V9.15975H16.1717C15.7834 9.15975 15.4686 9.47459 15.4686 9.86288V14.0816C15.4686 14.4699 15.7834 14.7848 16.1717 14.7848H19.6873V18.3004C19.6873 18.6887 20.0022 19.0035 20.3905 19.0035H24.6092C24.9975 19.0035 25.3123 18.6887 25.3123 18.3004V14.7848H28.828C29.2163 14.7848 29.5311 14.4699 29.5311 14.0816V9.86288C29.5311 9.47459 29.2163 9.15975 28.828 9.15975H25.3123ZM40.7811 5.83908V2.89005C38.786 3.22498 37.2655 4.96021 37.2655 7.05038V17.8801C37.742 17.872 38.2191 17.9595 38.6714 18.1507L38.6717 14.4329V10.5657C38.6717 8.88728 39.3384 7.27765 40.5252 6.09109C40.6122 6.00415 40.6972 5.92002 40.7811 5.83872L40.7811 5.83908ZM4.21859 5.83908C4.3024 5.92037 4.38747 6.00419 4.47442 6.09145C5.66129 7.27832 6.32793 8.88763 6.32793 10.5661V14.4332V18.151C6.78026 17.9599 7.25734 17.8723 7.73418 17.8805V7.05073C7.73418 4.96016 6.21367 3.22501 4.21856 2.8904L4.21859 5.83908ZM23.9061 9.86288C23.9061 10.2512 24.2209 10.566 24.6092 10.566H28.1248V13.3785H24.6092C24.2209 13.3785 23.9061 13.6933 23.9061 14.0816V17.5973H21.0936V14.0816C21.0936 13.6933 20.7788 13.3785 20.3905 13.3785H16.8748V10.566H20.3905C20.7788 10.566 21.0936 10.2512 21.0936 9.86288V6.34725H23.9061V9.86288Z" fill="#FF9160"/>
</g>
</svg>
