<svg width="24" height="24" viewBox="0 0 24 24" fill="none" xmlns="http://www.w3.org/2000/svg">
<g id="Hicon / Outline / Bookmark 2">
<g id="vuesax/bulk/clock">
<g id="clock">
<path id="Vector" opacity="0.4" d="M12 22C17.5228 22 22 17.5228 22 12C22 6.47715 17.5228 2 12 2C6.47715 2 2 6.47715 2 12C2 17.5228 6.47715 22 12 22Z" fill="#333333"/>
<path id="Vector_2" d="M15.7096 15.9298C15.5796 15.9298 15.4496 15.8998 15.3296 15.8198L12.2296 13.9698C11.4596 13.5098 10.8896 12.4998 10.8896 11.6098V7.50977C10.8896 7.09977 11.2296 6.75977 11.6396 6.75977C12.0496 6.75977 12.3896 7.09977 12.3896 7.50977V11.6098C12.3896 11.9698 12.6896 12.4998 12.9996 12.6798L16.0996 14.5298C16.4596 14.7398 16.5696 15.1998 16.3596 15.5598C16.2096 15.7998 15.9596 15.9298 15.7096 15.9298Z" fill="#333333"/>
</g>
</g>
</g>
</svg>
