<svg width="22" height="22" viewBox="0 0 22 22" fill="none" xmlns="http://www.w3.org/2000/svg">
<path fill-rule="evenodd" clip-rule="evenodd" d="M5.29318 3.46556C2.62636 5.40311 1.29295 6.37189 0.769249 7.80291C0.727238 7.91771 0.68945 8.034 0.655963 8.15157C0.238517 9.61711 0.747834 11.1846 1.76647 14.3197C2.7851 17.4547 3.29442 19.0222 4.49356 19.9625C4.58976 20.0379 4.68869 20.1098 4.79015 20.178C6.05497 21.0279 7.70315 21.0279 10.9995 21.0279C14.2959 21.0279 15.9441 21.0279 17.2089 20.178C17.3103 20.1098 17.4093 20.0379 17.5055 19.9625C18.7046 19.0222 19.2139 17.4547 20.2326 14.3197C21.2512 11.1846 21.7605 9.61711 21.3431 8.15157C21.3096 8.034 21.2718 7.91771 21.2298 7.80291C20.7061 6.37189 19.3727 5.40312 16.7059 3.46557C14.0391 1.52801 12.7056 0.559225 11.1828 0.503361C11.0607 0.49888 10.9384 0.49888 10.8162 0.503361C9.2934 0.559225 7.95999 1.52801 5.29318 3.46556ZM8.99951 15.5697C8.5853 15.5697 8.24951 15.9054 8.24951 16.3197C8.24951 16.7339 8.5853 17.0697 8.99951 17.0697H12.9995C13.4137 17.0697 13.7495 16.7339 13.7495 16.3197C13.7495 15.9054 13.4137 15.5697 12.9995 15.5697H8.99951Z" fill="#006D5B"/>
</svg>
