<svg width="23" height="23" viewBox="0 0 23 23" fill="none" xmlns="http://www.w3.org/2000/svg">
<path d="M9.49952 16.5697C9.08531 16.5697 8.74952 16.9054 8.74952 17.3197C8.74952 17.7339 9.08531 18.0697 9.49952 18.0697H13.4995C13.9137 18.0697 14.2495 17.7339 14.2495 17.3197C14.2495 16.9054 13.9137 16.5697 13.4995 16.5697H9.49952Z" fill="#8392A2"/>
<path fill-rule="evenodd" clip-rule="evenodd" d="M11.7103 0.753865C11.5698 0.748712 11.4292 0.748712 11.2887 0.753865C10.3613 0.787886 9.52627 1.10323 8.61066 1.62818C7.71839 2.13974 6.69116 2.88608 5.38778 3.83305L5.31693 3.88453C4.01353 4.83149 2.98627 5.57783 2.22402 6.26835C1.44183 6.97693 0.883865 7.67368 0.564934 8.54515C0.51662 8.67717 0.473165 8.81091 0.434655 8.94611C0.180434 9.83861 0.222297 10.7303 0.438607 11.7633C0.649405 12.77 1.04179 13.9776 1.53964 15.5098L1.56671 15.5931C2.06455 17.1253 2.45692 18.3329 2.87809 19.2712C3.31028 20.2341 3.80051 20.9801 4.53078 21.5527C4.6414 21.6394 4.75517 21.7221 4.87185 21.8005C5.64211 22.3181 6.50306 22.5538 7.55235 22.6673C8.5749 22.7779 9.84465 22.7779 11.4557 22.7779H11.5433C13.1544 22.7779 14.4241 22.7779 15.4467 22.6673C16.496 22.5538 17.3569 22.3181 18.1272 21.8005C18.2439 21.7221 18.3576 21.6394 18.4683 21.5527C19.1985 20.9801 19.6888 20.2341 20.1209 19.2712C20.5421 18.3329 20.9345 17.1253 21.4323 15.593L21.4594 15.5097C21.9572 13.9776 22.3496 12.7699 22.5604 11.7633C22.7767 10.7303 22.8186 9.83861 22.5644 8.94611C22.5259 8.81091 22.4824 8.67717 22.4341 8.54515C22.1152 7.67368 21.5572 6.97693 20.775 6.26835C20.0128 5.57782 18.9855 4.83149 17.6821 3.88452L17.6112 3.83303C16.3079 2.88607 15.2806 2.13973 14.3884 1.62818C13.4728 1.10323 12.6377 0.787886 11.7103 0.753865ZM11.3437 2.25286C11.4475 2.24905 11.5515 2.24905 11.6553 2.25286C12.2508 2.2747 12.8438 2.47167 13.6423 2.92948C14.4561 3.39603 15.4184 4.09396 16.765 5.07232C18.1116 6.05068 19.0728 6.75026 19.768 7.38002C20.4501 7.99798 20.8207 8.50112 21.0255 9.06067C21.0612 9.15824 21.0933 9.25709 21.1218 9.35703C21.285 9.93007 21.2809 10.555 21.0923 11.4558C20.9 12.374 20.5336 13.5049 20.0193 15.0879C19.5049 16.6709 19.1366 17.8012 18.7525 18.657C18.3756 19.4967 18.0116 20.0046 17.5427 20.3723C17.4609 20.4364 17.3768 20.4975 17.2906 20.5555C16.796 20.8878 16.2005 21.077 15.2854 21.176C14.3528 21.2768 13.164 21.2779 11.4995 21.2779C9.83504 21.2779 8.64625 21.2768 7.71366 21.176C6.79856 21.077 6.20301 20.8878 5.70845 20.5555C5.6222 20.4975 5.53811 20.4364 5.45635 20.3723C4.98747 20.0046 4.62347 19.4967 4.24656 18.657C3.86244 17.8012 3.49411 16.6709 2.97976 15.0879C2.46541 13.5049 2.09902 12.374 1.90677 11.4558C1.71812 10.555 1.71405 9.93007 1.87727 9.35703C1.90574 9.2571 1.93786 9.15824 1.97357 9.06067C2.17834 8.50112 2.54893 7.99798 3.23108 7.38002C3.92627 6.75026 4.88742 6.05068 6.23402 5.07232C7.58061 4.09396 8.54296 3.39603 9.35673 2.92948C10.1552 2.47167 10.7483 2.2747 11.3437 2.25286Z" fill="#8392A2"/>
</svg>