<svg width="20" height="20" viewBox="0 0 20 20" fill="none" xmlns="http://www.w3.org/2000/svg">
<path fill-rule="evenodd" clip-rule="evenodd" d="M5.53648 0.373728C6.67861 0.249986 8.11821 0.249992 9.95475 0.25H10.0452C11.8818 0.249992 13.3214 0.249986 14.4635 0.373728C15.6291 0.500006 16.5734 0.762324 17.3798 1.34815C17.8679 1.70281 18.2972 2.13209 18.6518 2.62024C19.2377 3.42656 19.5 4.37094 19.6263 5.53648C19.75 6.67859 19.75 8.11824 19.75 9.95473V10.006C19.75 10.9403 19.75 11.7682 19.7348 12.5005C19.6903 14.6546 19.5217 16.1825 18.6518 17.3798C18.2972 17.8679 17.8679 18.2972 17.3798 18.6518C16.5734 19.2377 15.6291 19.5 14.4635 19.6263C13.3214 19.75 11.8818 19.75 10.0453 19.75H9.95473C8.11824 19.75 6.67859 19.75 5.53648 19.6263C4.37094 19.5 3.42656 19.2377 2.62024 18.6518C2.14981 18.3101 1.73405 17.899 1.38706 17.4327C1.37399 17.4151 1.36102 17.3975 1.34815 17.3798C0.762324 16.5734 0.500006 15.6291 0.373728 14.4635C0.249985 13.3214 0.249992 11.8818 0.25 10.0453V9.95475C0.249992 8.11822 0.249986 6.67861 0.373729 5.53648C0.500007 4.37094 0.762324 3.42656 1.34815 2.62024C1.70281 2.13209 2.13209 1.70281 2.62024 1.34815C3.42656 0.762324 4.37094 0.500006 5.53648 0.373728ZM18.2453 11.7517L18.1823 11.6908C17.9063 11.4257 17.7024 11.2463 17.5106 11.1101C15.3618 9.58448 12.3978 9.98851 10.7358 12.0336C10.535 12.2806 10.3341 12.6097 10.0182 13.1622L9.5 13C8.30448 12.7609 7.70672 12.6413 7.15808 12.653C5.68985 12.6842 4.30956 13.3593 3.38354 14.4991C3.07484 14.879 2.82456 15.354 2.38701 16.2263C2.44098 16.3218 2.49912 16.412 2.56168 16.4981L2.59044 16.5372C2.8469 16.8818 3.15421 17.1857 3.50191 17.4383C4.00992 17.8074 4.66013 18.0225 5.69804 18.135C6.74999 18.249 8.10843 18.25 10 18.25C11.8916 18.25 13.25 18.249 14.302 18.135C15.3399 18.0225 15.9901 17.8074 16.4981 17.4383C16.8589 17.1762 17.1762 16.8589 17.4383 16.4981C18 15.725 18.19 14.6526 18.2352 12.4695C18.2399 12.2406 18.2431 12.0016 18.2453 11.7517ZM9 9C7.89543 9 7 8.10457 7 7C7 5.89543 7.89543 5 9 5C10.1046 5 11 5.89543 11 7C11 8.10457 10.1046 9 9 9Z" fill="#006D5B"/>
</svg>
