<svg width="24" height="27" viewBox="0 0 24 27" fill="none" xmlns="http://www.w3.org/2000/svg">
<path d="M5.82694 7.65491C5.39972 7.73021 5.20385 8.66409 5.3917 9.7387C5.56395 10.7258 5.99838 11.4896 6.40237 11.5475C6.91372 12.954 7.72428 14.3213 8.72655 15.3186C9.29257 15.8859 9.92109 16.3332 10.5901 16.6054C11.0509 16.7909 11.5316 16.8951 12.0264 16.8951C12.5199 16.8951 13.0006 16.7918 13.4609 16.6054C14.1541 16.3234 14.8037 15.8542 15.3851 15.2602C16.3625 14.2639 17.1544 12.918 17.654 11.536C18.0409 11.4197 18.4453 10.6817 18.6101 9.73802C18.7878 8.71433 18.6201 7.82159 18.2332 7.67324C18.2472 7.423 18.2562 7.17009 18.2544 6.91166C18.2462 3.20158 16.1163 0.751586 12.7593 0.522155C9.83164 0.320606 7.62673 1.50902 6.62226 3.48334C6.28337 4.14754 6.09167 5.27249 6.01676 6.17508C5.904 6.64549 5.8385 7.13429 5.8385 7.63993H5.85032C5.85032 7.64463 5.84972 7.64852 5.84852 7.652C5.8405 7.65261 5.8347 7.65323 5.82688 7.65466L5.82694 7.65491Z" fill="#585572"/>
<path d="M22.4028 19.1203C21.3344 17.7103 20.21 17.483 19.7309 17.3897C19.672 17.3789 19.6232 17.3692 19.5833 17.3592C19.5358 17.3478 19.4852 17.3408 19.4363 17.3308C19.4483 17.3551 19.4619 17.3776 19.4734 17.4026C19.6011 17.6821 19.6901 17.9731 19.7381 18.2691C19.8209 18.2978 19.8976 18.3313 19.9699 18.3712C20.744 18.7942 21.0372 19.7827 20.623 20.5739C20.345 21.1049 19.8064 21.4344 19.217 21.4344C18.9568 21.4344 18.697 21.3679 18.4665 21.2416C17.6923 20.8193 17.3991 19.8306 17.8133 19.0393C18.0126 18.659 18.3529 18.3791 18.7597 18.2547C18.6692 17.8929 18.4797 17.4863 18.1815 17.181C18.0853 17.1749 17.9886 17.1684 17.8959 17.1628C17.4606 17.1364 17.045 17.1135 16.7073 17.0444C16.3141 18.1071 12.0025 21.2267 12.0025 21.2267C12.0023 21.2267 7.6916 18.1068 7.29843 17.0439C6.95854 17.1131 6.54295 17.1379 6.1083 17.1636C6.03039 17.1684 5.94866 17.1733 5.86835 17.1786C5.53246 17.4812 5.28771 17.8781 5.19157 18.2238C5.31916 18.3203 5.42271 18.4513 5.49101 18.6045C6.1043 18.9002 6.64586 19.5226 7.06068 20.4088C7.13018 20.5582 7.13899 20.7266 7.08832 20.8803C7.33688 21.534 7.47908 22.2487 7.47908 22.8489C7.47908 23.6899 7.47908 24.4852 6.58178 24.6892C6.48444 24.7719 6.36306 24.8171 6.23528 24.8171H5.63583C5.33519 24.8171 5.09083 24.5668 5.09083 24.2601C5.09744 23.9475 5.34199 23.7031 5.63583 23.7031H6.23528C6.29696 23.7031 6.35705 23.7138 6.41474 23.7344C6.45099 23.7236 6.46241 23.715 6.46241 23.715C6.5291 23.5941 6.5291 23.0907 6.5291 22.8491C6.5291 22.3609 6.40973 21.7722 6.20042 21.2257C6.09167 21.1626 6.00394 21.0673 5.95006 20.9519C5.58633 20.1743 5.09203 19.672 4.69066 19.672C4.27986 19.672 3.76089 20.215 3.39915 21.0224C3.34007 21.1538 3.23631 21.2612 3.10853 21.3251C2.91925 21.8493 2.8153 22.3881 2.8153 22.8484C2.8153 23.0514 2.8153 23.5904 2.89101 23.7166H2.89121C2.89201 23.7166 2.90904 23.7272 2.9563 23.7391C3.019 23.7146 3.08409 23.7021 3.15179 23.7021H3.75247C4.04009 23.7021 4.27906 23.9323 4.29685 24.2263L4.30126 24.2439L4.29785 24.2595C4.29785 24.5666 4.0533 24.8164 3.75286 24.8164H3.15217C3.033 24.8164 2.91783 24.7759 2.82309 24.7017C2.48 24.6356 2.23846 24.4807 2.08541 24.2294C1.89994 23.9255 1.86569 23.5257 1.86569 22.848C1.86569 22.2534 2.00008 21.5692 2.24404 20.9153C2.20818 20.7753 2.2202 20.6292 2.27969 20.4976C2.53406 19.9298 2.85735 19.4435 3.21463 19.0917C3.41111 18.8982 3.62202 18.7428 3.84295 18.6295C3.92326 18.4367 4.06066 18.2745 4.22991 18.1714C4.27818 17.8951 4.38353 17.6103 4.53335 17.3365C4.4965 17.3441 4.45764 17.3494 4.42159 17.358C4.38113 17.367 4.33166 17.3768 4.27338 17.3885C3.82152 17.4779 2.794 17.6788 1.78036 18.8871C1.16906 19.6157 0.563405 20.7089 0.0916797 22.3663C-0.0260928 22.7795 -0.0266927 23.2149 0.0686462 23.621C0.11291 23.8056 0.170595 23.9883 0.257521 24.1568C1.30265 26.18 7.00269 26.9 11.9876 26.9H12.0156C17.0013 26.9 22.6987 26.18 23.7457 24.158C23.8473 23.9638 23.9078 23.7512 23.9516 23.5323C24.0245 23.1529 24.0183 22.7537 23.9106 22.3699C23.4871 20.8735 22.9534 19.8449 22.403 19.1204L22.4028 19.1203ZM18.6045 24.0473C18.6045 24.1488 18.5145 24.2306 18.4038 24.2306H17.3124V25.3454C17.3124 25.4589 17.2321 25.5508 17.1331 25.5508H16.0562C15.957 25.5508 15.8769 25.4589 15.8769 25.3454V24.2306H14.7855C14.6748 24.2306 14.5844 24.1488 14.5844 24.0473V22.9473C14.5844 22.8458 14.6746 22.764 14.7855 22.764H15.8769V21.6492C15.8769 21.5357 15.957 21.4438 16.0562 21.4438H17.1331C17.2319 21.4438 17.3124 21.5357 17.3124 21.6492V22.764H18.4038C18.5149 22.764 18.6045 22.8458 18.6045 22.9473V24.0473Z" fill="#585572"/>
<path d="M20.0796 19.8068C20.0796 20.293 19.6939 20.6869 19.2182 20.6869C18.7423 20.6869 18.3567 20.293 18.3567 19.8068C18.3567 19.3209 18.7422 18.9268 19.2182 18.9268C19.6938 18.9268 20.0796 19.3208 20.0796 19.8068Z" fill="#585572"/>
</svg>
