<svg width="24" height="24" viewBox="0 0 24 24" fill="none" xmlns="http://www.w3.org/2000/svg">
<path opacity="0.4" d="M11.5 21C16.7467 21 21 16.7467 21 11.5C21 6.25329 16.7467 2 11.5 2C6.25329 2 2 6.25329 2 11.5C2 16.7467 6.25329 21 11.5 21Z" fill="white"/>
<path d="M21.3001 21.9996C21.1201 21.9996 20.9401 21.9296 20.8101 21.7996L18.9501 19.9396C18.6801 19.6696 18.6801 19.2296 18.9501 18.9496C19.2201 18.6796 19.6601 18.6796 19.9401 18.9496L21.8001 20.8096C22.0701 21.0796 22.0701 21.5196 21.8001 21.7996C21.6601 21.9296 21.4801 21.9996 21.3001 21.9996Z" fill="white"/>
</svg>
