<svg width="22" height="21" viewBox="0 0 22 21" fill="none" xmlns="http://www.w3.org/2000/svg">
<path d="M3.89176 4.56511C4.64085 4.5 5.58826 4.5 6.86111 4.5H8.63889C11.128 4.5 12.3726 4.5 13.3233 4.98693C14.1596 5.41524 14.8395 6.09868 15.2656 6.93929C15.75 7.89494 15.75 9.14596 15.75 11.648V14.0594C15.75 14.3093 15.75 14.4342 15.745 14.5398C15.6673 16.1899 14.7036 17.6034 13.3204 18.3113L14.6915 19.2893C15.5865 19.9277 16.7626 19.0058 16.3541 17.986C16.0647 17.2636 16.5975 16.4779 17.3766 16.4779H17.9783C20.0614 16.4779 21.75 14.7916 21.75 12.7114V8.48893C21.75 5.69254 21.75 4.29435 21.205 3.22627C20.7257 2.28676 19.9608 1.52292 19.02 1.04421C17.9504 0.5 16.5503 0.5 13.75 0.5H11.75C8.94974 0.5 7.5496 0.5 6.48005 1.04421C5.53924 1.52292 4.77433 2.28676 4.29497 3.22627C4.09788 3.61254 3.97207 4.04198 3.89176 4.56511Z" fill="#006D5B"/>
<path fill-rule="evenodd" clip-rule="evenodd" d="M14.3261 7.65232C14.75 8.49554 14.75 9.59938 14.75 11.8071V13.9348C14.75 14.1552 14.75 14.2655 14.7456 14.3586C14.6508 16.3891 13.0482 18.0136 11.045 18.1097C10.9531 18.1141 10.8318 18.1141 10.5892 18.1141L10.5269 18.1142C9.73339 18.1193 8.96041 18.3704 8.31175 18.8337L8.2705 18.8635L6.23993 20.3337C5.54383 20.8377 4.62911 20.1098 4.94681 19.3048C5.17186 18.7345 4.75751 18.1141 4.15154 18.1141H3.68351C2.06338 18.1141 0.75 16.7828 0.75 15.1406V11.8071C0.75 9.59938 0.75 8.49554 1.17386 7.65232C1.5467 6.9106 2.14163 6.30757 2.87337 5.92964C3.70525 5.5 4.79424 5.5 6.97222 5.5H8.52778C10.7058 5.5 11.7948 5.5 12.6266 5.92964C13.3584 6.30757 13.9533 6.9106 14.3261 7.65232ZM4.75 13.5C5.30228 13.5 5.75 13.0523 5.75 12.5C5.75 11.9477 5.30228 11.5 4.75 11.5C4.19772 11.5 3.75 11.9477 3.75 12.5C3.75 13.0523 4.19772 13.5 4.75 13.5ZM8.75 12.5C8.75 13.0523 8.30228 13.5 7.75 13.5C7.19772 13.5 6.75 13.0523 6.75 12.5C6.75 11.9477 7.19772 11.5 7.75 11.5C8.30228 11.5 8.75 11.9477 8.75 12.5ZM10.75 13.5C11.3023 13.5 11.75 13.0523 11.75 12.5C11.75 11.9477 11.3023 11.5 10.75 11.5C10.1977 11.5 9.75 11.9477 9.75 12.5C9.75 13.0523 10.1977 13.5 10.75 13.5Z" fill="#006D5B"/>
</svg>
