<svg width="25" height="24" viewBox="0 0 25 24" fill="none" xmlns="http://www.w3.org/2000/svg">
<path opacity="0.4" d="M2.08789 12.97V6.99C2.08789 4.23 4.34766 2 7.13201 2H17.2202C20.0046 2 22.2644 4.23 22.2644 6.99V13.97C22.2644 16.72 20.0046 18.95 17.2202 18.95H15.707C15.3943 18.95 15.0916 19.1 14.9 19.35L13.3867 21.34C12.7209 22.22 11.6314 22.22 10.9655 21.34L9.4523 19.35C9.29089 19.13 8.92771 18.95 8.64524 18.95H7.13201C4.34766 18.95 2.08789 16.72 2.08789 13.97V12.97Z" fill="#585572"/>
<path d="M17.2199 8.75H7.13162C6.718 8.75 6.375 8.41 6.375 8C6.375 7.59 6.718 7.25 7.13162 7.25H17.2199C17.6335 7.25 17.9765 7.59 17.9765 8C17.9765 8.41 17.6335 8.75 17.2199 8.75Z" fill="#585572"/>
<path d="M13.1846 13.75H7.13162C6.718 13.75 6.375 13.41 6.375 13C6.375 12.59 6.718 12.25 7.13162 12.25H13.1846C13.5982 12.25 13.9412 12.59 13.9412 13C13.9412 13.41 13.5982 13.75 13.1846 13.75Z" fill="#585572"/>
</svg>
