<svg width="18" height="19" viewBox="0 0 18 19" fill="none" xmlns="http://www.w3.org/2000/svg">
<path d="M9.02001 18.5299C6.69001 18.5299 4.36001 18.1599 2.15001 17.4199C1.31001 17.1299 0.670006 16.5399 0.390006 15.7699C0.100006 14.9999 0.200006 14.1499 0.660006 13.3899L1.81001 11.4799C2.05001 11.0799 2.27001 10.2799 2.27001 9.80992V6.91992C2.27001 3.19992 5.30001 0.169922 9.02001 0.169922C12.74 0.169922 15.77 3.19992 15.77 6.91992V9.80992C15.77 10.2699 15.99 11.0799 16.23 11.4899L17.37 13.3899C17.8 14.1099 17.88 14.9799 17.59 15.7699C17.3 16.5599 16.67 17.1599 15.88 17.4199C13.68 18.1599 11.35 18.5299 9.02001 18.5299ZM9.02001 1.66992C6.13001 1.66992 3.77001 4.01992 3.77001 6.91992V9.80992C3.77001 10.5399 3.47001 11.6199 3.10001 12.2499L1.95001 14.1599C1.73001 14.5299 1.67001 14.9199 1.80001 15.2499C1.92001 15.5899 2.22001 15.8499 2.63001 15.9899C6.81001 17.3899 11.24 17.3899 15.42 15.9899C15.78 15.8699 16.06 15.5999 16.19 15.2399C16.32 14.8799 16.29 14.4899 16.09 14.1599L14.94 12.2499C14.56 11.5999 14.27 10.5299 14.27 9.79992V6.91992C14.27 4.01992 11.92 1.66992 9.02001 1.66992Z" fill="#292D32"/>
</svg>
