<svg width="24" height="24" viewBox="0 0 24 24" fill="none" xmlns="http://www.w3.org/2000/svg">
<path d="M12.0199 20.5319C9.68987 20.5319 7.35987 20.1619 5.14987 19.4219C4.30987 19.1319 3.66987 18.5419 3.38987 17.7719C3.09987 17.0019 3.19987 16.1519 3.65987 15.3919L4.80987 13.4819C5.04987 13.0819 5.26987 12.2819 5.26987 11.8119V8.92188C5.26987 5.20187 8.29987 2.17188 12.0199 2.17188C15.7399 2.17188 18.7699 5.20187 18.7699 8.92188V11.8119C18.7699 12.2719 18.9899 13.0819 19.2299 13.4919L20.3699 15.3919C20.7999 16.1119 20.8799 16.9819 20.5899 17.7719C20.2999 18.5619 19.6699 19.1619 18.8799 19.4219C16.6799 20.1619 14.3499 20.5319 12.0199 20.5319ZM12.0199 3.67188C9.12987 3.67188 6.76987 6.02187 6.76987 8.92188V11.8119C6.76987 12.5419 6.46987 13.6219 6.09987 14.2519L4.94987 16.1619C4.72987 16.5319 4.66987 16.9219 4.79987 17.2519C4.91987 17.5919 5.21987 17.8519 5.62987 17.9919C9.80987 19.3919 14.2399 19.3919 18.4199 17.9919C18.7799 17.8719 19.0599 17.6019 19.1899 17.2419C19.3199 16.8819 19.2899 16.4919 19.0899 16.1619L17.9399 14.2519C17.5599 13.6019 17.2699 12.5319 17.2699 11.8019V8.92188C17.2699 6.02187 14.9199 3.67188 12.0199 3.67188Z" fill="#292D32"/>
<path d="M13.8796 3.93969C13.8096 3.93969 13.7396 3.92969 13.6696 3.90969C13.3796 3.82969 13.0996 3.76969 12.8296 3.72969C11.9796 3.61969 11.1596 3.67969 10.3896 3.90969C10.1096 3.99969 9.80963 3.90969 9.61963 3.69969C9.42963 3.48969 9.36963 3.18969 9.47963 2.91969C9.88963 1.86969 10.8896 1.17969 12.0296 1.17969C13.1696 1.17969 14.1696 1.85969 14.5796 2.91969C14.6796 3.18969 14.6296 3.48969 14.4396 3.69969C14.2896 3.85969 14.0796 3.93969 13.8796 3.93969Z" fill="#292D32"/>
<path d="M12.0195 22.8086C11.0295 22.8086 10.0695 22.4086 9.36953 21.7086C8.66953 21.0086 8.26953 20.0486 8.26953 19.0586H9.76953C9.76953 19.6486 10.0095 20.2286 10.4295 20.6486C10.8495 21.0686 11.4295 21.3086 12.0195 21.3086C13.2595 21.3086 14.2695 20.2986 14.2695 19.0586H15.7695C15.7695 21.1286 14.0895 22.8086 12.0195 22.8086Z" fill="#292D32"/>
</svg>