<svg width="24" height="25" viewBox="0 0 24 25" fill="none" xmlns="http://www.w3.org/2000/svg">
<path opacity="0.4" d="M20.4 17.3308C20.12 18.0808 19.53 18.6508 18.76 18.9108C17.68 19.2708 16.57 19.5408 15.45 19.7308C15.34 19.7508 15.23 19.7708 15.12 19.7808C14.94 19.8108 14.76 19.8308 14.58 19.8508C14.36 19.8808 14.13 19.9008 13.9 19.9208C13.27 19.9708 12.65 20.0008 12.02 20.0008C11.38 20.0008 10.74 19.9708 10.11 19.9108C9.83996 19.8908 9.57996 19.8608 9.31996 19.8208C9.16996 19.8008 9.01996 19.7808 8.87996 19.7608C8.76996 19.7408 8.65996 19.7308 8.54996 19.7108C7.43996 19.5308 6.33996 19.2608 5.26996 18.9008C4.46996 18.6308 3.85996 18.0608 3.58996 17.3308C3.31996 16.6108 3.41996 15.7708 3.84996 15.0508L4.97996 13.1708C5.21996 12.7608 5.43996 11.9708 5.43996 11.4908V9.63078C5.43996 6.00078 8.38996 3.05078 12.02 3.05078C15.64 3.05078 18.59 6.00078 18.59 9.63078V11.4908C18.59 11.9708 18.81 12.7608 19.06 13.1708L20.19 15.0508C20.6 15.7508 20.68 16.5708 20.4 17.3308Z" fill="#442463"/>
<path d="M12 11.7606C11.58 11.7606 11.24 11.4206 11.24 11.0006V7.90063C11.24 7.48063 11.58 7.14062 12 7.14062C12.42 7.14062 12.76 7.48063 12.76 7.90063V11.0006C12.75 11.4206 12.41 11.7606 12 11.7606Z" fill="#442463"/>
<path d="M14.8301 21.01C14.4101 22.17 13.3001 23 12.0001 23C11.2101 23 10.4301 22.68 9.88005 22.11C9.56005 21.81 9.32005 21.41 9.18005 21C9.31005 21.02 9.44005 21.03 9.58005 21.05C9.81005 21.08 10.0501 21.11 10.2901 21.13C10.8601 21.18 11.4401 21.21 12.0201 21.21C12.5901 21.21 13.1601 21.18 13.7201 21.13C13.9301 21.11 14.1401 21.1 14.3401 21.07C14.5001 21.05 14.6601 21.03 14.8301 21.01Z" fill="#442463"/>
<circle cx="18" cy="5" r="3.75" fill="#442463" stroke="white" stroke-width="1.5"/>
</svg>
