<svg width="72" height="72" viewBox="0 0 72 72" fill="none" xmlns="http://www.w3.org/2000/svg">
<path d="M66 63.75H6C4.77 63.75 3.75 64.77 3.75 66C3.75 67.23 4.77 68.25 6 68.25H66C67.23 68.25 68.25 67.23 68.25 66C68.25 64.77 67.23 63.75 66 63.75Z" fill="#585572"/>
<path opacity="0.4" d="M51 6H21C12 6 9 11.37 9 18V66H63V18C63 11.37 60 6 51 6Z" fill="#585572"/>
<path d="M42.1797 45H29.7897C28.2597 45 26.9697 46.26 26.9697 47.82V66H44.9697V47.82C44.9997 46.26 43.7397 45 42.1797 45Z" fill="#585572"/>
<path d="M43.5 23.25H38.25V18C38.25 16.77 37.23 15.75 36 15.75C34.77 15.75 33.75 16.77 33.75 18V23.25H28.5C27.27 23.25 26.25 24.27 26.25 25.5C26.25 26.73 27.27 27.75 28.5 27.75H33.75V33C33.75 34.23 34.77 35.25 36 35.25C37.23 35.25 38.25 34.23 38.25 33V27.75H43.5C44.73 27.75 45.75 26.73 45.75 25.5C45.75 24.27 44.73 23.25 43.5 23.25Z" fill="#585572"/>
</svg>
