<svg width="72" height="72" viewBox="0 0 72 72" fill="none" xmlns="http://www.w3.org/2000/svg">
<path d="M50.2497 10.68V6C50.2497 4.77 49.2297 3.75 47.9997 3.75C46.7697 3.75 45.7497 4.77 45.7497 6V10.5H26.2497V6C26.2497 4.77 25.2297 3.75 23.9997 3.75C22.7697 3.75 21.7497 4.77 21.7497 6V10.68C13.6497 11.43 9.71971 16.26 9.11971 23.43C9.05971 24.3 9.77971 25.02 10.6197 25.02H61.3797C62.2497 25.02 62.9697 24.27 62.8797 23.43C62.2797 16.26 58.3497 11.43 50.2497 10.68Z" fill="#585572"/>
<path opacity="0.4" d="M63 32.5198V37.7397C63 39.5697 61.38 40.9798 59.58 40.6798C58.74 40.5598 57.87 40.4698 57 40.4698C47.91 40.4698 40.5 47.8798 40.5 56.9698C40.5 58.3498 41.04 60.2698 41.61 62.0098C42.27 63.9598 40.83 65.9698 38.76 65.9698H24C13.5 65.9698 9 59.9698 9 50.9698V32.4897C9 30.8397 10.35 29.4897 12 29.4897H60C61.65 29.5197 63 30.8698 63 32.5198Z" fill="#585572"/>
<path d="M57 45C50.37 45 45 50.37 45 57C45 59.25 45.63 61.38 46.74 63.18C48.81 66.66 52.62 69 57 69C61.38 69 65.19 66.66 67.26 63.18C68.37 61.38 69 59.25 69 57C69 50.37 63.63 45 57 45ZM63.21 55.71L56.82 61.62C56.4 62.01 55.83 62.22 55.29 62.22C54.72 62.22 54.15 62.01 53.7 61.56L50.73 58.59C49.86 57.72 49.86 56.28 50.73 55.41C51.6 54.54 53.04 54.54 53.91 55.41L55.35 56.85L60.15 52.41C61.05 51.57 62.49 51.63 63.33 52.53C64.17 53.43 64.11 54.84 63.21 55.71Z" fill="#585572"/>
<path d="M25.5 45.0002C24.72 45.0002 23.94 44.6702 23.37 44.1302C22.83 43.5602 22.5 42.7802 22.5 42.0002C22.5 41.2202 22.83 40.4403 23.37 39.8703C24.06 39.1803 25.11 38.8502 26.1 39.0602C26.28 39.0902 26.46 39.1502 26.64 39.2402C26.82 39.3002 27 39.3903 27.18 39.5103C27.33 39.6303 27.48 39.7503 27.63 39.8703C28.17 40.4403 28.5 41.2202 28.5 42.0002C28.5 42.7802 28.17 43.5602 27.63 44.1302C27.48 44.2502 27.33 44.3702 27.18 44.4902C27 44.6102 26.82 44.7003 26.64 44.7603C26.46 44.8503 26.28 44.9103 26.1 44.9403C25.89 44.9703 25.68 45.0002 25.5 45.0002Z" fill="#585572"/>
<path d="M36 45.0001C35.22 45.0001 34.44 44.67 33.87 44.13C33.33 43.56 33 42.7801 33 42.0001C33 41.2201 33.33 40.4401 33.87 39.8701C35.01 38.7601 37.02 38.7601 38.13 39.8701C38.67 40.4401 39 41.2201 39 42.0001C39 42.7801 38.67 43.56 38.13 44.13C37.56 44.67 36.78 45.0001 36 45.0001Z" fill="#585572"/>
<path d="M25.5 55.5001C24.72 55.5001 23.94 55.1701 23.37 54.6301C22.83 54.0601 22.5 53.2801 22.5 52.5001C22.5 51.7201 22.83 50.9401 23.37 50.3701C23.67 50.1001 23.97 49.8901 24.36 49.7401C25.47 49.2601 26.79 49.5301 27.63 50.3701C28.17 50.9401 28.5 51.7201 28.5 52.5001C28.5 53.2801 28.17 54.0601 27.63 54.6301C27.06 55.1701 26.28 55.5001 25.5 55.5001Z" fill="#292D32"/>
</svg>
