<svg width="72" height="72" viewBox="0 0 72 72" fill="none" xmlns="http://www.w3.org/2000/svg">
<path d="M66 18V25.26C66 30 63 33 58.26 33H48V12.03C48 8.7 50.73 6 54.06 6C57.33 6.03 60.33 7.35 62.49 9.51C64.65 11.7 66 14.7 66 18Z" fill="#006D5B"/>
<path opacity="0.4" d="M6 21V63C6 65.49 8.82002 66.9 10.8 65.4L15.93 61.56C17.13 60.66 18.81 60.78 19.89 61.86L24.87 66.87C26.04 68.04 27.96 68.04 29.13 66.87L34.17 61.83C35.22 60.78 36.9 60.66 38.07 61.56L43.2 65.4C45.18 66.87 48 65.46 48 63V12C48 8.7 50.7 6 54 6H21H18C9 6 6 11.37 6 18V21Z" fill="#006D5B"/>
<path d="M36 29.25H18C16.77 29.25 15.75 28.23 15.75 27C15.75 25.77 16.77 24.75 18 24.75H36C37.23 24.75 38.25 25.77 38.25 27C38.25 28.23 37.23 29.25 36 29.25Z" fill="#006D5B"/>
<path d="M33.75 41.25H20.25C19.02 41.25 18 40.23 18 39C18 37.77 19.02 36.75 20.25 36.75H33.75C34.98 36.75 36 37.77 36 39C36 40.23 34.98 41.25 33.75 41.25Z" fill="#006D5B"/>
</svg>
