<svg width="72" height="72" viewBox="0 0 72 72" fill="none" xmlns="http://www.w3.org/2000/svg">
<path opacity="0.4" d="M32.8804 6.33014L16.3804 12.5101C13.2304 13.7101 10.6504 17.4301 10.6504 20.8201V45.1201C10.6504 47.5501 12.2404 50.7601 14.1904 52.2001L30.6904 64.5302C33.6004 66.7201 38.3704 66.7201 41.2804 64.5302L57.7804 52.2001C59.7304 50.7301 61.3204 47.5501 61.3204 45.1201V20.8201C61.3204 17.4601 58.7404 13.7101 55.5904 12.5401L39.0904 6.36014C37.4104 5.70014 34.5904 5.70014 32.8804 6.33014Z" fill="#FF9160"/>
<path d="M43.5 31.5C43.5 27.36 40.14 24 36 24C31.86 24 28.5 27.36 28.5 31.5C28.5 34.86 30.72 37.65 33.75 38.61V46.5C33.75 47.73 34.77 48.75 36 48.75C37.23 48.75 38.25 47.73 38.25 46.5V38.61C41.28 37.65 43.5 34.86 43.5 31.5Z" fill="#FF9160"/>
</svg>
