<svg width="72" height="72" viewBox="0 0 72 72" fill="none" xmlns="http://www.w3.org/2000/svg">
<path opacity="0.4" d="M65.22 28.32H6V19.26C6 11.94 11.94 6 19.26 6H26.25C31.14 6 32.67 7.59 34.62 10.2L38.82 15.78C39.75 17.01 39.87 17.19 41.61 17.19H49.98C57.09 17.16 63.15 21.84 65.22 28.32Z" fill="#292D32"/>
<path d="M65.97 32.5198C65.91 31.0498 65.67 29.6698 65.22 28.3198H6V49.9498C6 58.7998 13.2 65.9998 22.05 65.9998H49.95C58.8 65.9998 66 58.7998 66 49.9498V33.2098C66 32.9998 66 32.7298 65.97 32.5198ZM43.62 47.9098L37.17 53.5498C36.84 53.8498 36.42 53.9998 36 53.9998C35.58 53.9998 35.16 53.8498 34.83 53.5498L28.38 47.9098C26.34 46.1098 26.07 43.0498 27.75 40.9198C29.49 38.7598 32.55 38.3698 34.77 40.0198L35.97 40.9198L37.17 40.0198C39.39 38.3698 42.45 38.7598 44.19 40.9198C45.93 43.0498 45.66 46.1098 43.62 47.9098Z" fill="#FF9160"/>
</svg>
