<svg width="22" height="24" viewBox="0 0 22 24" fill="none" xmlns="http://www.w3.org/2000/svg">
<path fill-rule="evenodd" clip-rule="evenodd" d="M10.9999 8.25001C8.92888 8.25001 7.24995 9.92895 7.24995 12C7.24995 14.0711 8.92888 15.75 10.9999 15.75C13.071 15.75 14.7499 14.0711 14.7499 12C14.7499 9.92895 13.071 8.25001 10.9999 8.25001ZM8.74995 12C8.74995 10.7574 9.75731 9.75002 10.9999 9.75002C12.2426 9.75002 13.2499 10.7574 13.2499 12C13.2499 13.2427 12.2426 14.25 10.9999 14.25C9.75731 14.25 8.74995 13.2427 8.74995 12Z" fill="#2D264B"/>
<path fill-rule="evenodd" clip-rule="evenodd" d="M14.4147 3.2323C13.4342 -0.203084 8.56564 -0.203083 7.58523 3.2323C7.28146 4.2967 6.18792 4.92806 5.11423 4.65893C1.6489 3.7903 -0.785401 8.00664 1.69952 10.5734C2.46944 11.3687 2.46944 12.6314 1.69952 13.4266C-0.785401 15.9934 1.6489 20.2097 5.11423 19.3411C6.18792 19.072 7.28146 19.7033 7.58523 20.7677C8.56564 24.2031 13.4342 24.2031 14.4147 20.7677C14.7184 19.7033 15.812 19.072 16.8857 19.3411C20.351 20.2097 22.7853 15.9934 20.3004 13.4266C19.5305 12.6314 19.5305 11.3687 20.3004 10.5734C22.7853 8.00664 20.351 3.7903 16.8857 4.65893C15.812 4.92806 14.7184 4.2967 14.4147 3.2323ZM9.02764 3.64394C9.59392 1.6597 12.406 1.6597 12.9722 3.64394C13.4982 5.48678 15.3915 6.57987 17.2504 6.11391C19.2519 5.6122 20.6579 8.04752 19.2227 9.53005C17.8897 10.9069 17.8897 13.0931 19.2227 14.47C20.6579 15.9525 19.2519 18.3878 17.2504 17.8861C15.3915 17.4202 13.4982 18.5133 12.9722 20.3561C12.406 22.3403 9.59392 22.3403 9.02764 20.3561C8.50172 18.5133 6.60843 17.4202 4.74952 17.8861C2.74798 18.3878 1.34196 15.9525 2.77722 14.47C4.1102 13.0931 4.1102 10.9069 2.77722 9.53005C1.34196 8.04752 2.74798 5.6122 4.74952 6.11391C6.60843 6.57987 8.50172 5.48678 9.02764 3.64394Z" fill="#2D264B"/>
</svg>
