<svg width="130" height="129" viewBox="0 0 130 129" fill="none" xmlns="http://www.w3.org/2000/svg">
<path opacity="0.4" d="M65 117.985C94.7801 117.985 118.922 94.0628 118.922 64.5534C118.922 35.0441 94.7801 11.1221 65 11.1221C35.2199 11.1221 11.0784 35.0441 11.0784 64.5534C11.0784 94.0628 35.2199 117.985 65 117.985Z" fill="#292D32"/>
<path d="M65 37.4639C53.8382 37.4639 44.7794 46.4403 44.7794 57.5006C44.7794 68.3472 53.3529 77.1634 64.7304 77.484C64.8922 77.484 65.1079 77.484 65.2157 77.484C65.3235 77.484 65.4853 77.484 65.5931 77.484C65.6471 77.484 65.701 77.484 65.701 77.484C76.5931 77.1099 85.1667 68.3472 85.2206 57.5006C85.2206 46.4403 76.1618 37.4639 65 37.4639Z" fill="#292D32"/>
<path d="M101.559 103.825C91.9608 112.588 79.1274 117.985 65 117.985C50.8725 117.985 38.0392 112.588 28.4412 103.825C29.7353 98.9632 33.2402 94.5284 38.3627 91.1088C53.0833 81.3843 77.0245 81.3843 91.6372 91.1088C96.8137 94.5284 100.265 98.9632 101.559 103.825Z" fill="#292D32"/>
</svg>
