<svg width="52" height="52" viewBox="0 0 52 52" fill="none" xmlns="http://www.w3.org/2000/svg">
<path opacity="0.4" d="M25.9997 47.6888C37.9658 47.6888 47.6663 37.9883 47.6663 26.0221C47.6663 14.056 37.9658 4.35547 25.9997 4.35547C14.0335 4.35547 4.33301 14.056 4.33301 26.0221C4.33301 37.9883 14.0335 47.6888 25.9997 47.6888Z" fill="#979797"/>
<path d="M26 15.0371C21.515 15.0371 17.875 18.6771 17.875 23.1621C17.875 27.5604 21.32 31.1354 25.8917 31.2654C25.9567 31.2654 26.0433 31.2654 26.0867 31.2654C26.13 31.2654 26.195 31.2654 26.2383 31.2654C26.26 31.2654 26.2817 31.2654 26.2817 31.2654C30.6583 31.1138 34.1033 27.5604 34.125 23.1621C34.125 18.6771 30.485 15.0371 26 15.0371Z" fill="#979797"/>
<path d="M40.6896 41.9462C36.8329 45.4995 31.6762 47.6879 25.9996 47.6879C20.3229 47.6879 15.1662 45.4995 11.3096 41.9462C11.8296 39.9745 13.2379 38.1762 15.2962 36.7895C21.2112 32.8462 30.8312 32.8462 36.7029 36.7895C38.7829 38.1762 40.1696 39.9745 40.6896 41.9462Z" fill="#292D32"/>
</svg>
