<svg width="86" height="86" viewBox="0 0 86 86" fill="none" xmlns="http://www.w3.org/2000/svg">
<path opacity="0.4" d="M43 78.3295C62.4924 78.3295 78.2941 62.5277 78.2941 43.0353C78.2941 23.5429 62.4924 7.74121 43 7.74121C23.5076 7.74121 7.7059 23.5429 7.7059 43.0353C7.7059 62.5277 23.5076 78.3295 43 78.3295Z" fill="#292D32"/>
<path d="M43 25.1411C35.6941 25.1411 29.7647 31.0705 29.7647 38.3764C29.7647 45.5411 35.3765 51.3646 42.8235 51.5764C42.9294 51.5764 43.0706 51.5764 43.1412 51.5764C43.2118 51.5764 43.3176 51.5764 43.3882 51.5764C43.4235 51.5764 43.4588 51.5764 43.4588 51.5764C50.5882 51.3293 56.2 45.5411 56.2353 38.3764C56.2353 31.0705 50.3059 25.1411 43 25.1411Z" fill="#292D32"/>
<path d="M66.9294 68.9764C60.6471 74.7647 52.2471 78.3294 43 78.3294C33.7529 78.3294 25.3529 74.7647 19.0706 68.9764C19.9176 65.7647 22.2118 62.8353 25.5647 60.5764C35.2 54.1529 50.8706 54.1529 60.4353 60.5764C63.8235 62.8353 66.0824 65.7647 66.9294 68.9764Z" fill="#292D32"/>
</svg>
