<svg width="20" height="20" viewBox="0 0 20 20" fill="none" xmlns="http://www.w3.org/2000/svg">
<path d="M18.3332 17.7085H1.6665C1.32484 17.7085 1.0415 17.9918 1.0415 18.3335C1.0415 18.6752 1.32484 18.9585 1.6665 18.9585H18.3332C18.6748 18.9585 18.9582 18.6752 18.9582 18.3335C18.9582 17.9918 18.6748 17.7085 18.3332 17.7085Z" fill="#585572"/>
<path opacity="0.4" d="M14.1667 1.6665H5.83333C3.33333 1.6665 2.5 3.15817 2.5 4.99984V18.3332H17.5V4.99984C17.5 3.15817 16.6667 1.6665 14.1667 1.6665Z" fill="#585572"/>
<path d="M11.7167 12.5H8.27502C7.85002 12.5 7.4917 12.85 7.4917 13.2833V18.3333H12.4917V13.2833C12.5 12.85 12.15 12.5 11.7167 12.5Z" fill="#585572"/>
<path d="M12.0832 6.45833H10.6248V5C10.6248 4.65833 10.3415 4.375 9.99984 4.375C9.65817 4.375 9.37484 4.65833 9.37484 5V6.45833H7.9165C7.57484 6.45833 7.2915 6.74167 7.2915 7.08333C7.2915 7.425 7.57484 7.70833 7.9165 7.70833H9.37484V9.16667C9.37484 9.50833 9.65817 9.79167 9.99984 9.79167C10.3415 9.79167 10.6248 9.50833 10.6248 9.16667V7.70833H12.0832C12.4248 7.70833 12.7082 7.425 12.7082 7.08333C12.7082 6.74167 12.4248 6.45833 12.0832 6.45833Z" fill="#585572"/>
</svg>
