<svg width="25" height="25" viewBox="0 0 25 25" fill="none" xmlns="http://www.w3.org/2000/svg">
<path d="M22.25 21.75H2.25C1.84 21.75 1.5 22.09 1.5 22.5C1.5 22.91 1.84 23.25 2.25 23.25H22.25C22.66 23.25 23 22.91 23 22.5C23 22.09 22.66 21.75 22.25 21.75Z" fill="#006D5B"/>
<path opacity="0.4" d="M17.25 2.5H7.25C4.25 2.5 3.25 4.29 3.25 6.5V22.5H21.25V6.5C21.25 4.29 20.25 2.5 17.25 2.5Z" fill="#006D5B"/>
<path d="M14.31 15.5H10.18C9.66999 15.5 9.24001 15.92 9.24001 16.44V22.5H15.24V16.44C15.25 15.92 14.83 15.5 14.31 15.5Z" fill="#006D5B"/>
<path d="M14.75 8.25H13V6.5C13 6.09 12.66 5.75 12.25 5.75C11.84 5.75 11.5 6.09 11.5 6.5V8.25H9.75C9.34 8.25 9 8.59 9 9C9 9.41 9.34 9.75 9.75 9.75H11.5V11.5C11.5 11.91 11.84 12.25 12.25 12.25C12.66 12.25 13 11.91 13 11.5V9.75H14.75C15.16 9.75 15.5 9.41 15.5 9C15.5 8.59 15.16 8.25 14.75 8.25Z" fill="#006D5B"/>
</svg>
