<svg width="24" height="25" viewBox="0 0 24 25" fill="none" xmlns="http://www.w3.org/2000/svg">
<path opacity="0.4" d="M21.74 9.94H2V6.92C2 4.48 3.98 2.5 6.42 2.5H8.75C10.38 2.5 10.89 3.03 11.54 3.9L12.94 5.76C13.25 6.17 13.29 6.23 13.87 6.23H16.66C19.03 6.22 21.05 7.78 21.74 9.94Z" fill="#006D5B"/>
<path d="M21.99 11.3404C21.97 10.8504 21.89 10.3904 21.74 9.94043H2V17.1504C2 20.1004 4.4 22.5004 7.35 22.5004H16.65C19.6 22.5004 22 20.1004 22 17.1504V11.5704C22 11.5004 22 11.4104 21.99 11.3404ZM14.54 16.4704L12.39 18.3504C12.28 18.4504 12.14 18.5004 12 18.5004C11.86 18.5004 11.72 18.4504 11.61 18.3504L9.46 16.4704C8.78 15.8704 8.69 14.8504 9.25 14.1404C9.83 13.4204 10.85 13.2904 11.59 13.8404L11.99 14.1404L12.39 13.8404C13.13 13.2904 14.15 13.4204 14.73 14.1404C15.31 14.8504 15.22 15.8704 14.54 16.4704Z" fill="#006D5B"/>
</svg>
