<svg width="43" height="24" viewBox="0 0 43 24" fill="none" xmlns="http://www.w3.org/2000/svg">
<path fill-rule="evenodd" clip-rule="evenodd" d="M39.7946 1.5H13.875C13.5258 1.5 13.1876 1.6218 12.9186 1.84441L2.04365 10.8444C1.31878 11.4443 1.31878 12.5557 2.04365 13.1556L12.9186 22.1556C13.1876 22.3782 13.5258 22.5 13.875 22.5H39.7946C40.623 22.5 41.2946 21.8284 41.2946 21V3C41.2946 2.17157 40.623 1.5 39.7946 1.5ZM13.875 0C13.1767 0 12.5003 0.243602 11.9623 0.688818L1.0873 9.68882C-0.362432 10.8886 -0.362432 13.1114 1.0873 14.3112L11.9623 23.3112C12.5003 23.7564 13.1767 24 13.875 24H39.7946C41.4515 24 42.7946 22.6569 42.7946 21V3C42.7946 1.34315 41.4515 0 39.7946 0H13.875Z" fill="#292D32"/>
</svg>
