<svg width="56" height="56" viewBox="0 0 56 56" fill="none" xmlns="http://www.w3.org/2000/svg">
<path opacity="0.4" d="M51.3332 18.2237V37.7537C51.3332 46.247 46.2698 51.3103 37.7765 51.3103H18.2232C9.72984 51.3337 4.6665 46.2703 4.6665 37.777V18.2237C4.6665 9.73032 9.72984 4.66699 18.2232 4.66699H37.7532C46.2698 4.66699 51.3332 9.73032 51.3332 18.2237Z" fill="#006D5B"/>
<path d="M27.9998 42.5837C23.8232 42.5837 20.5565 40.507 18.3398 38.4537V40.1103C18.3398 41.067 17.5465 41.8603 16.5898 41.8603C15.6332 41.8603 14.8398 41.067 14.8398 40.1103V33.6937C14.8398 32.737 15.6332 31.9437 16.5898 31.9437H22.3765C23.3332 31.9437 24.1265 32.737 24.1265 33.6937C24.1265 34.6503 23.3332 35.4437 22.3765 35.4437H20.2765C22.0032 37.1703 24.6865 39.0837 27.9998 39.0837C34.1132 39.0837 39.0832 34.1137 39.0832 28.0003C39.0832 27.0437 39.8765 26.2503 40.8332 26.2503C41.7898 26.2503 42.5832 27.0437 42.5832 28.0003C42.5832 36.0503 36.0498 42.5837 27.9998 42.5837ZM15.1665 29.7503C14.2098 29.7503 13.4165 28.957 13.4165 28.0003C13.4165 19.9503 19.9498 13.417 27.9998 13.417C33.0165 13.417 36.7032 15.587 39.0832 17.6637V15.8903C39.0832 14.9337 39.8765 14.1403 40.8332 14.1403C41.7898 14.1403 42.5832 14.9337 42.5832 15.8903V22.2837C42.5832 22.3537 42.5832 22.4237 42.5832 22.4703C42.5598 22.727 42.4898 22.9603 42.3732 23.1703C42.2565 23.3803 42.0932 23.567 41.8832 23.7303C41.7198 23.847 41.5332 23.9403 41.3232 24.0103C41.1598 24.057 40.9965 24.0803 40.8332 24.0803H35.1632C34.2065 24.0803 33.4132 23.287 33.4132 22.3303C33.4132 21.3737 34.2065 20.5803 35.1632 20.5803H37.0998C35.2332 18.8537 32.2232 16.9403 28.0465 16.9403C21.9332 16.9403 16.9632 21.9103 16.9632 28.0237C16.9165 28.957 16.1232 29.7503 15.1665 29.7503Z" fill="#006D5B"/>
</svg>
