<svg width="25" height="24" viewBox="0 0 25 24" fill="none" xmlns="http://www.w3.org/2000/svg">
<path opacity="0.4" d="M11.1267 2.05959L5.57822 4.11959C4.51896 4.51959 3.65137 5.75959 3.65137 6.88959V14.9896C3.65137 15.7996 4.18604 16.8696 4.84178 17.3496L10.3903 21.4596C11.3689 22.1896 12.9729 22.1896 13.9515 21.4596L19.5 17.3496C20.1557 16.8596 20.6904 15.7996 20.6904 14.9896V6.88959C20.6904 5.76959 19.8228 4.51959 18.7635 4.12959L13.215 2.06959C12.6501 1.84959 11.7018 1.84959 11.1267 2.05959Z" fill="#585572"/>
<path d="M10.8246 14.2301C10.6329 14.2301 10.4412 14.1601 10.2899 14.0101L8.66571 12.4001C8.37315 12.1101 8.37315 11.6301 8.66571 11.3401C8.95827 11.0501 9.4425 11.0501 9.73506 11.3401L10.8246 12.4201L14.6279 8.65012C14.9204 8.36012 15.4046 8.36012 15.6972 8.65012C15.9898 8.94012 15.9898 9.42012 15.6972 9.71012L11.3593 14.0101C11.2079 14.1601 11.0163 14.2301 10.8246 14.2301Z" fill="#585572"/>
</svg>
