<svg width="44" height="45" viewBox="0 0 44 45" fill="none" xmlns="http://www.w3.org/2000/svg">
<path d="M26.6722 17.113C24.8361 17.112 23.0746 17.8397 21.7742 19.1359C20.4739 20.4321 19.741 22.1911 19.7363 24.0275C19.7314 25.8636 20.4556 27.6265 21.749 28.9293C23.0428 30.2323 24.8005 30.9686 26.6366 30.9773C28.4727 30.9856 30.2373 30.2652 31.5429 28.9741C32.8483 27.6832 33.5882 25.9268 33.6002 24.0907V24.0676V24.0593V24.041C33.5971 22.2046 32.8663 20.4441 31.5677 19.1458C30.2691 17.8472 28.5086 17.1161 26.6722 17.113L26.6722 17.113ZM26.6722 18.3008C28.096 18.3022 29.4688 18.8313 30.5252 19.7864C31.5815 20.7413 32.2464 22.054 32.3909 23.4704L28.6335 23.4576H28.6332C28.3784 23.4579 28.152 23.6212 28.0712 23.8628L27.3639 25.9837L26.0867 21.5794V21.5797C26.0177 21.3429 25.8092 21.1734 25.563 21.1541C25.3173 21.1365 25.086 21.2718 24.9807 21.4945L23.8564 23.907H20.9364C20.973 22.4089 21.593 20.984 22.6641 19.9363C23.7352 18.8883 25.1736 18.3 26.6721 18.2966L26.6722 18.3008ZM26.6722 29.794C25.3311 29.792 24.0328 29.3211 23.0018 28.4633C21.971 27.6055 21.272 26.4145 21.0263 25.0963H24.2314C24.4617 25.0959 24.6712 24.9623 24.7685 24.7538L25.3857 23.4297L26.7531 28.1457C26.8255 28.3946 27.0513 28.5679 27.3105 28.573H27.3226C27.5774 28.5727 27.8038 28.4098 27.8846 28.1678L29.0575 24.6482L32.3855 24.6596C32.2319 26.0683 31.5639 27.3704 30.5097 28.3173C29.4554 29.2638 28.0888 29.7882 26.6722 29.7902L26.6722 29.794ZM43.1936 36.6727L39.908 33.3833C39.6964 33.1689 39.4279 33.0195 39.1338 32.9529C38.84 32.8859 38.5331 32.9049 38.2497 33.0067L36.1575 30.9145C36.1813 30.7881 36.1934 30.6597 36.1934 30.5313C36.1955 29.9801 35.9766 29.4506 35.5859 29.0615L35.0909 28.5665V28.5668C36.0615 26.7605 36.4254 24.69 36.1281 22.661C35.8309 20.6323 34.8886 18.753 33.4405 17.3012V7.87315C33.4395 6.80097 33.0132 5.77298 32.2551 5.01495C31.4971 4.25692 30.4691 3.83028 29.3969 3.82886H23.5577V3.17369C23.5577 2.84576 23.2919 2.57995 22.9639 2.57995H19.8665C19.6712 1.60242 19.0325 0.771133 18.1385 0.330349C17.2444 -0.110116 16.1961 -0.110116 15.302 0.330349C14.408 0.771159 13.7693 1.60242 13.574 2.57995H10.4731C10.1452 2.57995 9.87937 2.84575 9.87937 3.17369V3.82886H4.04358C2.9714 3.83024 1.94341 4.25655 1.18538 5.01495C0.427343 5.77298 0.00106043 6.80097 0 7.87315V40.4954C0.00103551 41.5672 0.427343 42.5952 1.18538 43.3532C1.94376 44.1113 2.9714 44.5375 4.04358 44.539H29.3966C30.4688 44.5376 31.4968 44.1113 32.2548 43.3532C33.0128 42.5952 33.4391 41.5672 33.4402 40.4954V33.5425C33.4747 33.538 33.5089 33.5335 33.543 33.5277L35.6356 35.621C35.5762 35.7884 35.5448 35.9648 35.5424 36.1425C35.5403 36.5695 35.7095 36.9793 36.0122 37.2806L39.2978 40.5665H39.2974C39.9933 41.2625 41.0078 41.5341 41.9581 41.2794C42.9088 41.025 43.6513 40.2825 43.906 39.3318C44.1608 38.3811 43.8891 37.367 43.1932 36.6711L43.1936 36.6727ZM36.3553 34.6637L34.6398 32.9488L35.5776 32.0085L37.2932 33.7241L36.3553 34.6637ZM33.9355 29.0889L34.7481 29.9018V29.9021C35.0947 30.2518 35.0947 30.8155 34.7481 31.1655L33.7929 32.1207V32.1204C33.5461 32.3537 33.1902 32.4317 32.8685 32.323C32.8426 32.314 32.816 32.3057 32.7912 32.2943C32.7594 32.2805 32.7284 32.265 32.6987 32.247C32.6372 32.2118 32.5803 32.1694 32.5292 32.1204L31.7159 31.3061C31.523 31.1138 31.2244 31.0775 30.991 31.2177C28.6355 32.6357 25.7338 32.8069 23.228 31.6754C20.7219 30.5439 18.9314 28.2542 18.4374 25.5493C17.9435 22.8448 18.8089 20.0698 20.7526 18.1256C22.6967 16.1812 25.4713 15.3154 28.1763 15.8087C30.8808 16.3023 33.1712 18.0925 34.3031 20.5982C35.435 23.1039 35.2644 26.0056 33.8467 28.3616C33.7052 28.5956 33.7418 28.8956 33.9355 29.0889L33.9355 29.0889ZM29.8398 35.9616H27.2367H27.2371C26.8053 35.9626 26.3917 36.1348 26.0865 36.44C25.7814 36.7451 25.6095 37.1587 25.6084 37.5902V40.9386H4.04379C3.79871 40.9386 3.59953 40.7404 3.59815 40.4957V7.87348C3.6016 7.62908 3.79939 7.43232 4.04379 7.4306H9.88302V8.08025C9.88302 8.40818 10.1488 8.67398 10.4768 8.67398H22.9677C23.2956 8.67398 23.5614 8.40819 23.5614 8.08025V7.4306H29.4007C29.6447 7.43198 29.8425 7.62943 29.8435 7.87348V15.0276C26.9187 13.9968 23.6753 14.4494 21.1441 16.2412C18.6128 18.0331 17.1081 20.9416 17.1081 24.0432C17.1081 27.1444 18.6127 30.053 21.1441 31.8448C23.6754 33.6367 26.9188 34.0892 29.8435 33.0585L29.8398 35.9616ZM29.1753 37.1493L26.7935 40.0347V37.5901C26.7935 37.344 26.993 37.1448 27.2388 37.1448L29.1753 37.1493ZM29.3969 5.01665C30.155 5.01734 30.8816 5.3187 31.4173 5.85478C31.9531 6.39052 32.2548 7.11713 32.2554 7.87516V16.2926C31.865 16.0103 31.4539 15.7583 31.0252 15.5384V7.87311C31.0248 7.44127 30.8529 7.02739 30.5478 6.72193C30.2426 6.41678 29.8287 6.24488 29.397 6.24453H23.5577V5.01461L29.3969 5.01665ZM11.0657 3.76668H14.1048C14.4293 3.76668 14.6937 3.50606 14.6989 3.18158C14.7099 2.46634 15.0979 1.8101 15.7193 1.45565C16.341 1.10114 17.1031 1.10114 17.7245 1.45565C18.3458 1.81016 18.7342 2.46641 18.7452 3.18158C18.7504 3.50606 19.0148 3.76599 19.3389 3.76599H22.3773V7.48649H11.0661L11.0657 3.76668ZM32.2557 40.4954C32.255 41.2531 31.9533 41.9797 31.4175 42.5154C30.8818 43.0515 30.1552 43.3529 29.3972 43.3536H4.04416C3.28612 43.3529 2.55947 43.0515 2.02378 42.5154C1.48805 41.9797 1.18635 41.2531 1.18566 40.4954V7.87318C1.18635 7.11514 1.48805 6.38885 2.02378 5.8528C2.55952 5.31706 3.28613 5.01571 4.04416 5.01468H9.8834V6.24424L4.04416 6.24458C3.61233 6.24493 3.19844 6.41683 2.89333 6.72198C2.58819 7.02747 2.41628 7.44135 2.41594 7.87316V40.4954C2.41732 40.9269 2.58922 41.3401 2.89403 41.6452C3.19918 41.9504 3.61272 42.1226 4.04424 42.124H26.3256C26.5026 42.1237 26.67 42.0446 26.7829 41.9083L30.8903 36.9321C30.8938 36.9276 30.8951 36.9217 30.8986 36.9172V36.9169C30.9348 36.8706 30.9642 36.8192 30.9856 36.764C30.9887 36.755 30.9904 36.7467 30.9935 36.7377C31.0139 36.6787 31.0242 36.6169 31.0253 36.5548V32.5499C31.0826 32.5205 31.1416 32.4943 31.1979 32.4639L31.6908 32.9569V32.9565C31.7678 33.0318 31.8506 33.1012 31.9383 33.164C31.9507 33.1723 31.9621 33.1819 31.9739 33.1902C32.0598 33.2499 32.1503 33.3031 32.2441 33.3494C32.249 33.3494 32.2531 33.3549 32.258 33.3573L32.2557 40.4954ZM42.3554 39.7284C42.0606 40.0211 41.6615 40.1854 41.2459 40.1854C40.8302 40.1854 40.4312 40.0211 40.1364 39.7284L36.8505 36.4425V36.4421C36.689 36.2771 36.689 36.0134 36.8505 35.8484L38.4746 34.2246C38.6393 34.0627 38.9037 34.0627 39.0684 34.2246L42.3539 37.5105V37.5109C42.6466 37.8057 42.811 38.2044 42.811 38.6204C42.811 39.036 42.6466 39.4347 42.3539 39.7298L42.3554 39.7284ZM6.7869 12.9562C6.7869 12.6282 7.05269 12.3621 7.38063 12.3621H23.2861C23.6141 12.3621 23.8802 12.6282 23.8802 12.9562C23.8802 13.2841 23.6141 13.5499 23.2861 13.5499H7.37975C7.05216 13.5492 6.7874 13.2834 6.7874 12.9562H6.7869ZM6.7869 17.6663C6.7869 17.3384 7.05269 17.0722 7.38063 17.0722H17.095C17.4229 17.0722 17.6887 17.3384 17.6887 17.6663C17.6887 17.9943 17.423 18.2601 17.095 18.2601H7.37886C7.05197 18.2594 6.78721 17.9946 6.78652 17.6677L6.7869 17.6663ZM6.7869 22.3765C6.7869 22.0485 7.05269 21.7824 7.38063 21.7824H15.2882C15.6162 21.7824 15.882 22.0485 15.882 22.3765C15.882 22.7044 15.6162 22.9702 15.2882 22.9702H7.37922C7.05232 22.9695 6.78756 22.7048 6.78687 22.3779L6.7869 22.3765ZM6.7869 27.0866C6.7869 26.7587 7.05269 26.4925 7.38063 26.4925H15.5754C15.9037 26.4925 16.1695 26.7587 16.1695 27.0866C16.1695 27.4145 15.9037 27.6803 15.5754 27.6803H7.37922C7.05232 27.6797 6.78756 27.4149 6.78687 27.088L6.7869 27.0866ZM6.7869 31.7968C6.7869 31.4688 7.05269 31.2027 7.38063 31.2027H18.1749C18.5028 31.2027 18.7686 31.4688 18.7686 31.7968C18.7686 32.1247 18.5028 32.3905 18.1749 32.3905H7.37886C7.05197 32.3898 6.78721 32.125 6.78652 31.7981L6.7869 31.7968ZM24.1072 36.5069C24.1072 36.8348 23.841 37.1006 23.5131 37.1006H7.3805C7.05257 37.1006 6.78676 36.8348 6.78676 36.5069C6.78676 36.179 7.05256 35.9128 7.3805 35.9128H23.5131C23.6709 35.9135 23.8217 35.9763 23.9329 36.0878C24.0437 36.1997 24.1061 36.3509 24.1055 36.5083L24.1072 36.5069Z" fill="#FF9160"/>
</svg>
