<svg version="1.1" xmlns="http://www.w3.org/2000/svg" xmlns:xlink="http://www.w3.org/1999/xlink" width="24" height="24" viewBox="0,0,256,256"><g fill="#000000" fill-rule="nonzero" stroke="none" stroke-width="1" stroke-linecap="butt" stroke-linejoin="miter" stroke-miterlimit="10" stroke-dasharray="" stroke-dashoffset="0" font-family="none" font-weight="none" font-size="none" text-anchor="none" style="mix-blend-mode: normal"><g transform="scale(10.66667,10.66667)"><path d="M17.6201,9.62012h-5.25c-0.41,0 -0.75,-0.34 -0.75,-0.75c0,-0.41 0.34,-0.75 0.75,-0.75h5.25c0.41,0 0.75,0.34 0.75,0.75c0,0.41 -0.33,0.75 -0.75,0.75z"></path><path d="M7.11957,10.3803c-0.19,0 -0.38,-0.07 -0.53,-0.22l-0.75,-0.74999c-0.29,-0.29 -0.29,-0.77 0,-1.06c0.29,-0.29 0.77,-0.29 1.06,0l0.22,0.22l1.72,-1.72c0.29,-0.29 0.77,-0.29 1.06,0c0.29003,0.29 0.29003,0.77 0,1.06l-2.25,2.24999c-0.14,0.14 -0.33,0.22 -0.53,0.22z"></path><path d="M17.6201,16.6201h-5.25c-0.41,0 -0.75,-0.34 -0.75,-0.75c0,-0.41 0.34,-0.75 0.75,-0.75h5.25c0.41,0 0.75,0.34 0.75,0.75c0,0.41 -0.33,0.75 -0.75,0.75z"></path><path d="M7.11957,17.3803c-0.19,0 -0.38,-0.07 -0.53,-0.22l-0.75,-0.75c-0.29,-0.29 -0.29,-0.77 0,-1.06c0.29,-0.29 0.77,-0.29 1.06,0l0.22,0.22l1.72,-1.72c0.29,-0.29 0.77,-0.29 1.06,0c0.29003,0.29 0.29003,0.77 0,1.06l-2.25,2.25c-0.14,0.14 -0.33,0.22 -0.53,0.22z"></path><path d="M15,22.75h-6c-5.43,0 -7.75,-2.32 -7.75,-7.75v-6c0,-5.43 2.32,-7.75 7.75,-7.75h6c5.43,0 7.75,2.32 7.75,7.75v6c0,5.43 -2.32,7.75 -7.75,7.75zM9,2.75c-4.61,0 -6.25,1.64 -6.25,6.25v6c0,4.61 1.64,6.25 6.25,6.25h6c4.61,0 6.25,-1.64 6.25,-6.25v-6c0,-4.61 -1.64,-6.25 -6.25,-6.25z"></path></g></g></svg>