<svg width="21" height="20" viewBox="0 0 21 20" fill="none" xmlns="http://www.w3.org/2000/svg">
<path d="M11.3329 9.2917C11.3152 9.2917 11.2997 9.28848 11.2864 9.28311C11.2735 9.27794 11.2594 9.26949 11.2448 9.25481L10.8912 9.60837L11.2448 9.25481C11.2232 9.23328 11.21 9.20255 11.21 9.1667C11.21 9.13085 11.2232 9.10011 11.2448 9.07859L18.0781 2.24525C18.0996 2.22373 18.1304 2.21045 18.1662 2.21045C18.2021 2.21045 18.2328 2.22373 18.2543 2.24525C18.2759 2.26678 18.2891 2.29751 18.2891 2.33337C18.2891 2.36922 18.2759 2.39995 18.2543 2.42148L11.421 9.25481C11.4063 9.26949 11.3923 9.27794 11.3794 9.28311C11.3661 9.28848 11.3506 9.2917 11.3329 9.2917Z" fill="#5C8833" stroke="#5C8833"/>
<path d="M18.833 6.2915C18.4913 6.2915 18.208 6.00817 18.208 5.6665V2.2915H14.833C14.4913 2.2915 14.208 2.00817 14.208 1.6665C14.208 1.32484 14.4913 1.0415 14.833 1.0415H18.833C19.1747 1.0415 19.458 1.32484 19.458 1.6665V5.6665C19.458 6.00817 19.1747 6.2915 18.833 6.2915Z" fill="#5C8833"/>
<path d="M13.0003 18.9582H8.00033C3.47533 18.9582 1.54199 17.0248 1.54199 12.4998V7.49984C1.54199 2.97484 3.47533 1.0415 8.00033 1.0415H9.66699C10.0087 1.0415 10.292 1.32484 10.292 1.6665C10.292 2.00817 10.0087 2.2915 9.66699 2.2915H8.00033C4.15866 2.2915 2.79199 3.65817 2.79199 7.49984V12.4998C2.79199 16.3415 4.15866 17.7082 8.00033 17.7082H13.0003C16.842 17.7082 18.2087 16.3415 18.2087 12.4998V10.8332C18.2087 10.4915 18.492 10.2082 18.8337 10.2082C19.1753 10.2082 19.4587 10.4915 19.4587 10.8332V12.4998C19.4587 17.0248 17.5253 18.9582 13.0003 18.9582Z" fill="#5C8833"/>
</svg>
