<svg width="42" height="39" viewBox="0 0 42 39" fill="none" xmlns="http://www.w3.org/2000/svg">
<path d="M33.466 14.7287C32.4638 14.7287 31.5924 15.3387 31.2 16.2102H28.237C27.8449 16.2102 27.4528 16.4281 27.2783 16.8202L25.7096 20.1319L22.4414 11.4603C22.2672 11.0245 21.9186 10.7631 21.4392 10.7631C21.0034 10.7631 20.6112 11.0682 20.4806 11.5038L17.3866 21.5262L14.0311 7.01552C13.9439 6.53617 13.5083 6.1875 13.029 6.1875C12.5062 6.1875 12.1137 6.49268 11.9831 6.97171L9.4122 16.2098H6.53613C5.96955 16.2098 5.49023 16.6891 5.49023 17.2556C5.49023 17.8222 5.96958 18.3015 6.53613 18.3015H10.1964C10.6758 18.3015 11.1117 17.9964 11.1986 17.5173L12.8545 11.5475L16.1662 25.7968C16.2534 26.2761 16.689 26.581 17.1684 26.6248H17.2118C17.6912 26.6248 18.0833 26.3196 18.214 25.8841L21.57 15.0773L24.664 23.1824C24.7948 23.5745 25.1869 23.8359 25.6227 23.8796C26.0586 23.9231 26.4507 23.6617 26.6249 23.2696L28.9778 18.3455H31.3745C31.8104 19.1297 32.5947 19.6528 33.5098 19.6528C34.8606 19.6528 35.95 18.5634 35.95 17.2127C35.95 15.8181 34.8171 14.7287 33.466 14.7287Z" fill="#FF9160"/>
<path d="M29.1083 12.898C29.3263 13.1159 29.7184 13.1159 29.9363 12.898L33.1173 9.71706C34.0759 8.75839 33.9453 7.14617 32.7686 6.31815C31.8972 5.70811 30.6771 5.92604 29.9364 6.6668L29.5005 7.10268L28.9777 6.57986C28.019 5.6212 26.4068 5.75185 25.5788 6.92851C24.9687 7.79994 25.1867 9.02006 25.9274 9.76077L29.1083 12.898Z" fill="#FF9160"/>
<path d="M35.1654 7.7771e-05H6.23117C2.78884 7.7771e-05 0 2.78892 0 6.23125V26.1453C0 29.5877 2.78884 32.3765 6.23117 32.3765H15.6871V36.9082H13.3342C12.7676 36.9082 12.2883 37.3876 12.2883 37.9541C12.2883 38.5207 12.7676 39 13.3342 39H28.0627C28.6293 39 29.1086 38.5207 29.1086 37.9541C29.1086 37.3876 28.6293 36.9082 28.0627 36.9082H25.7098L25.7095 32.333H35.1654C38.6078 32.333 41.3966 29.5442 41.3966 26.1018L41.3969 6.18775C41.3969 2.78884 38.6081 0 35.1657 0L35.1654 7.7771e-05ZM23.6179 36.8651H17.7788V32.3331H23.6179V36.8651ZM39.2615 26.1019C39.2615 28.3679 37.4314 30.1981 35.1653 30.1981H6.23109C3.96508 30.1981 2.1349 28.3679 2.1349 26.1019L2.1352 6.18782C2.1352 3.92181 3.96538 2.09163 6.23139 2.09163H35.2092C37.4752 2.09163 39.3054 3.92181 39.3054 6.18782V26.1019H39.2615Z" fill="#FF9160"/>
</svg>
