<svg width="40" height="40" viewBox="0 0 40 40" fill="none" xmlns="http://www.w3.org/2000/svg">
<path opacity="0.4" d="M35.133 14.2997V25.6997C35.133 27.5663 34.133 29.2997 32.5163 30.2497L22.6163 35.9664C20.9997 36.8997 18.9996 36.8997 17.3663 35.9664L7.46629 30.2497C5.84962 29.3164 4.84961 27.583 4.84961 25.6997V14.2997C4.84961 12.4331 5.84962 10.6997 7.46629 9.74966L17.3663 4.03301C18.983 3.09967 20.983 3.09967 22.6163 4.03301L32.5163 9.74966C34.133 10.6997 35.133 12.4164 35.133 14.2997Z" fill="#FF9B9B"/>
<path d="M20 22.917C19.3167 22.917 18.75 22.3503 18.75 21.667V12.917C18.75 12.2337 19.3167 11.667 20 11.667C20.6833 11.667 21.25 12.2337 21.25 12.917V21.667C21.25 22.3503 20.6833 22.917 20 22.917Z" fill="#FF9B9B"/>
<path d="M19.9997 28.7504C19.783 28.7504 19.5663 28.7004 19.3663 28.6171C19.1497 28.5337 18.983 28.4171 18.8163 28.2671C18.6663 28.1005 18.5497 27.9171 18.4497 27.7171C18.3664 27.5171 18.333 27.3004 18.333 27.0837C18.333 26.6504 18.4996 26.217 18.8163 25.9004C18.983 25.7504 19.1497 25.6338 19.3663 25.5504C19.983 25.2838 20.7164 25.4337 21.183 25.9004C21.333 26.067 21.4496 26.2337 21.533 26.4504C21.6163 26.6504 21.6663 26.8671 21.6663 27.0837C21.6663 27.3004 21.6163 27.5171 21.533 27.7171C21.4496 27.9171 21.333 28.1005 21.183 28.2671C20.8664 28.5838 20.4497 28.7504 19.9997 28.7504Z" fill="#FF9B9B"/>
</svg>
