<svg width="32" height="32" viewBox="0 0 32 32" fill="none" xmlns="http://www.w3.org/2000/svg">
<path d="M22.9334 4.80007H20.2668C19.318 4.80007 18.1334 3.7334 18.1334 3.7334C18.1334 3.7334 17.6001 4.75847 17.6001 5.3334C17.6001 6.2502 17.7692 6.83366 18.6668 7.46673V11.2001C18.6668 12.6886 19.5398 13.9697 20.8001 14.5691V16.0001C20.8001 16.5889 21.5164 17.0667 22.4001 17.0667C23.2838 17.0667 24.0001 16.5889 24.0001 16.0001V14.5691C25.2604 13.9697 26.1334 12.6886 26.1334 11.2001V8.00006C26.1334 6.23313 24.7004 4.80007 22.9334 4.80007Z" fill="#004D99"/>
<path d="M8.50111 21.9085C8.40404 21.5762 8.09684 21.333 7.73311 21.333C7.29097 21.333 6.93311 21.6914 6.93311 22.133C6.93311 22.2077 6.94644 22.2781 6.96564 22.3463L7.66057 24.7922C8.22057 26.7351 9.94751 28.2663 12.5331 28.2663C12.9752 28.2663 13.3331 27.9079 13.3331 27.4663C13.3331 27.0247 12.9752 26.6663 12.5331 26.6663C10.7134 26.6663 9.57684 25.6647 9.19817 24.3495L8.50111 21.9085Z" fill="#004D99"/>
<path d="M12.2669 2.80664L1.52979 5.87917L5.16392 18.5816L15.933 15.4994L12.2669 2.80664ZM13.0759 12.7234C12.1965 13.2584 11.3362 13.628 10.4722 13.885L10.6327 14.4477C10.653 14.5181 10.6669 14.5901 10.6669 14.6669C10.6669 15.1085 10.309 15.4669 9.86685 15.4669C9.50152 15.4669 9.19698 15.2205 9.10098 14.8861L8.91378 14.2317C8.09938 14.3549 7.26792 14.4002 6.40018 14.4002C6.10578 14.4002 5.86685 14.1618 5.86685 13.8669C5.86685 13.572 6.10578 13.3336 6.40018 13.3336C7.17192 13.3336 7.90418 13.2962 8.61885 13.1981L8.16712 11.6168C7.59912 11.6946 7.01085 11.7336 6.40018 11.7336H5.33352C5.03912 11.7336 4.80018 11.4952 4.80018 11.2002C4.80018 10.9053 5.03912 10.6669 5.33352 10.6669H6.40018C6.91378 10.6669 7.40392 10.6445 7.87485 10.5928L7.41618 8.98797C7.08445 9.03437 6.74685 9.06691 6.40018 9.06691H5.33352C5.03912 9.06691 4.80018 8.82851 4.80018 8.53357C4.80018 8.23864 5.03912 8.00024 5.33352 8.00024H6.40018C6.64125 8.00024 6.88178 7.98211 7.12125 7.95544L6.96818 7.41944C6.94738 7.34904 6.93352 7.27704 6.93352 7.20024C6.93352 6.75864 7.29138 6.40024 7.73352 6.40024C8.09885 6.40024 8.40338 6.64664 8.49938 6.98104L8.67005 7.57837C9.28018 7.34051 9.83645 7.00557 10.2813 6.56877C10.3783 6.46584 10.5143 6.40024 10.6669 6.40024C10.9613 6.40024 11.2002 6.63864 11.2002 6.93357C11.2002 7.07064 11.1479 7.19597 11.0631 7.29037C10.5255 7.82851 9.79965 8.28344 8.96178 8.60024L9.43752 10.2637C10.1421 10.0349 10.797 9.69517 11.4023 9.18264C11.493 9.11064 11.6082 9.06691 11.7335 9.06691C12.0279 9.06691 12.2669 9.30531 12.2669 9.60024C12.2669 9.75384 12.2018 9.89251 12.0978 9.98957C11.3805 10.5832 10.5837 10.9917 9.72392 11.2674L10.1805 12.8648C10.9581 12.6322 11.7314 12.2962 12.5282 11.8077C12.6082 11.7608 12.7005 11.7336 12.8002 11.7336C13.0946 11.7336 13.3335 11.972 13.3335 12.2669C13.3335 12.46 13.2301 12.6301 13.0759 12.7234Z" fill="#004D99"/>
<path d="M13.3753 21.5413C13.3753 21.5413 12.0585 18.4682 11.7721 17.7994L9.2041 18.5343L10.7364 23.9071C10.9284 24.5749 11.5369 25.0666 12.2665 25.0666C12.602 25.0666 12.9124 24.9626 13.1694 24.7866L17.0665 22.1125V29.8666H26.6665V21.8666C26.6665 21.5717 26.9054 21.3333 27.1998 21.3333C27.4942 21.3333 27.7332 21.5717 27.7332 21.8666V29.8666H30.3998V20.0554C30.3998 18.9077 29.6654 17.8885 28.5764 17.5258L25.0249 16.3418C24.8249 17.3685 23.7481 18.1333 22.3998 18.1333C21.0596 18.1333 19.987 17.3786 19.7774 16.3615L17.4126 17.1967C17.0745 17.3162 16.7636 17.5023 16.499 17.745L13.9214 20.1077L14.3566 21.1231C14.3844 21.1882 14.3998 21.2586 14.3998 21.3333C14.3998 21.6282 14.1609 21.8666 13.8665 21.8666C13.6462 21.8666 13.4569 21.7311 13.3753 21.5413Z" fill="#004D99"/>
</svg>
